<svg width="18" height="18" viewBox="0 0 18 18" fill="none" xmlns="http://www.w3.org/2000/svg">
<circle cx="9" cy="9" r="9" fill="#F0F0F0"/>
<path d="M13.2832 10.741L13.2826 10.7404C13.0692 10.5254 12.7495 10.2998 12.4758 10.1227C12.1902 9.93795 11.8922 9.76631 11.6841 9.66141L11.6838 9.66125C11.6784 9.65851 11.6729 9.65575 11.6674 9.65297C11.565 9.60138 11.4512 9.54404 11.3479 9.50189C11.235 9.4558 11.0707 9.39983 10.8732 9.39963C10.4901 9.39922 10.199 9.61762 10.0504 9.72907C10.0418 9.73553 10.0337 9.74163 10.0261 9.7473L10.0259 9.74742C9.99236 9.77236 9.96053 9.79669 9.93386 9.81708L9.9294 9.82049C9.90224 9.84126 9.88095 9.85748 9.86132 9.872C9.84934 9.86693 9.83587 9.861 9.82089 9.8541C9.74604 9.81961 9.65184 9.76932 9.54455 9.70249C9.32926 9.5684 9.08241 9.38096 8.85274 9.15204C8.62293 8.92298 8.42956 8.67125 8.28954 8.45001C8.2198 8.33982 8.16696 8.24296 8.13074 8.16624C8.12468 8.1534 8.11936 8.14171 8.1147 8.13114C8.12866 8.11233 8.14388 8.09234 8.16317 8.067L8.16617 8.06307C8.18776 8.03471 8.21361 8.00071 8.24039 7.96426L8.24041 7.96422C8.24345 7.96009 8.24656 7.95586 8.24975 7.95153C8.36346 7.79703 8.57226 7.51335 8.57162 7.12887C8.57131 6.94376 8.52366 6.78656 8.48148 6.67284C8.44076 6.56309 8.38515 6.44351 8.33445 6.33449L8.33369 6.33287L8.3334 6.33224C8.2276 6.10527 8.04852 5.79778 7.86235 5.51469C7.68114 5.23916 7.4534 4.92556 7.24027 4.71559C7.15562 4.63198 7.06792 4.54845 6.98212 4.48107C6.90121 4.41753 6.75841 4.31609 6.56249 4.27192C6.33604 4.22086 6.1506 4.26961 6.04214 4.30901C5.99707 4.32538 5.95625 4.34365 5.93632 4.35258L5.93452 4.35338C5.93106 4.35493 5.92784 4.35637 5.92483 4.35772C5.90579 4.36625 5.89507 4.37105 5.88217 4.37641L5.88216 4.3764L5.8791 4.37769C5.66358 4.46837 5.45681 4.57859 5.2614 4.70697L5.26139 4.70696L5.25819 4.70909C4.88801 4.95501 4.59551 5.21901 4.39602 5.64529C4.12561 6.22307 4.20053 7.09718 4.86195 8.29865C5.51303 9.48136 5.98868 10.1112 6.93445 11.0543C7.88678 12.0039 8.6331 12.5234 9.68819 13.1151L9.68857 13.1154C10.3571 13.4898 10.8836 13.6779 11.3228 13.7326C11.797 13.7918 12.1224 13.6895 12.3508 13.5831C12.7763 13.3849 13.0416 13.0956 13.2898 12.7228L13.2915 12.7202C13.4204 12.5249 13.531 12.3181 13.6219 12.1025L13.6229 12.1003C13.6282 12.0875 13.633 12.0769 13.6415 12.058L13.6459 12.0481L13.6467 12.0463C13.6557 12.0264 13.6741 11.9855 13.6906 11.9404C13.7303 11.8315 13.7793 11.6455 13.7279 11.4184C13.6835 11.2223 13.5816 11.0795 13.5181 10.9989C13.4506 10.9132 13.367 10.8256 13.2832 10.741Z" stroke="#555555" stroke-width="1.5" stroke-miterlimit="10"/>
</svg>
