<svg width="21" height="20" viewBox="0 0 21 20" fill="none" xmlns="http://www.w3.org/2000/svg">
<path d="M4.179 15.123C1.593 13.566 0 11.112 0 8.405C0.001 3.701 4.749 0 10.501 0C16.253 0 21.001 3.701 21.001 8.405C21.001 13.109 16.253 16.81 10.501 16.81C10.059 16.81 9.62 16.788 9.183 16.745L5.418 19.203C4.803 19.529 4.461 19.628 3.933 19.269C3.313 18.845 3.337 18.377 3.551 17.709L4.179 15.123ZM2 8.405C2 10.537 3.418 12.528 5.781 13.725L6.487 14.084L6.301 14.854L5.9 16.502L8.7 14.672L9.065 14.718C9.539 14.779 10.018 14.81 10.5 14.81C15.241 14.81 19 11.88 19 8.405C19 4.93 15.242 2 10.501 2C5.76 2 2 4.93 2 8.405Z" fill="#2D2D2D"/>
</svg>
