<svg width="1138" height="113" viewBox="0 0 1138 113" fill="none" xmlns="http://www.w3.org/2000/svg">
<rect x="0.5" y="0.5" width="1137" height="112" rx="12.5" fill="white" stroke="#D8D8D8"/>
<path d="M208.029 32.375C210.791 32.3887 212.35 33.0723 212.363 34.3301C212.35 35.6016 210.791 36.2578 208.029 36.2578C205.24 36.2578 203.668 35.6016 203.668 34.3301C203.668 33.0723 205.24 32.3887 208.029 32.375ZM208.029 33.6465C206.266 33.6465 205.459 33.8652 205.459 34.3301C205.459 34.8086 206.266 35 208.029 34.9863C209.779 35 210.586 34.8086 210.6 34.3301C210.586 33.8652 209.779 33.6465 208.029 33.6465ZM213.129 24.7051V26.0176H202.916V24.7051H207.168V23.7207H208.918V24.7051H213.129ZM208.043 26.3594C210.736 26.3594 212.227 26.9609 212.227 28.1504C212.227 29.1826 211.058 29.7773 208.918 29.9004V30.543H213.717V31.8965H202.369V30.543H207.168V29.9004C205.035 29.7773 203.846 29.1826 203.859 28.1504C203.846 26.9609 205.363 26.3594 208.043 26.3594ZM208.043 27.5352C206.471 27.5352 205.719 27.7129 205.719 28.1504C205.719 28.5469 206.471 28.7383 208.043 28.7383C209.629 28.7383 210.354 28.5469 210.354 28.1504C210.354 27.7129 209.629 27.5352 208.043 27.5352ZM224.887 23.8164V30.0781H223.137V23.8164H224.887ZM221.113 24.2676C221.1 27.6855 219.199 29.5449 215.262 30.3379L214.646 28.9297C217.716 28.3623 218.994 27.1729 219.186 25.6758H215.316V24.2676H221.113ZM224.887 30.5703V33.9336H218.324V34.7812H225.229V36.1348H216.561V32.6758H223.123V31.9238H216.533V30.5703H224.887ZM237.943 29.6953V31.0625H226.568V29.6953H231.408V28.6289H227.949V24.3633H236.576V25.7168H229.686V27.2617H236.645V28.6289H233.117V29.6953H237.943ZM232.229 31.6914C234.922 31.6914 236.549 32.5117 236.562 33.9883C236.549 35.4375 234.922 36.2715 232.229 36.2715C229.508 36.2715 227.867 35.4375 227.867 33.9883C227.867 32.5117 229.508 31.6914 232.229 31.6914ZM232.229 33.0176C230.506 33.0176 229.631 33.3457 229.645 33.9883C229.631 34.6445 230.506 34.9453 232.229 34.9453C233.91 34.9453 234.799 34.6445 234.812 33.9883C234.799 33.3457 233.91 33.0176 232.229 33.0176Z" fill="#2D2D2D"/>
<path d="M227.867 55.0293C227.867 57.2715 229.125 59.5 230.998 60.3477L230.205 61.3867C228.811 60.6895 227.765 59.3018 227.225 57.627C226.685 59.3906 225.611 60.8809 224.203 61.6191L223.383 60.5664C225.283 59.6641 226.555 57.2988 226.555 55.0293V52.9375H227.867V55.0293ZM233.664 51.9121V64.1895H232.379V57.0391H229.645V55.9863H232.379V51.9121H233.664ZM241.129 52.0488C243.891 52.0488 245.504 52.8008 245.504 54.1543C245.504 55.5215 243.891 56.2734 241.129 56.2734C238.367 56.2734 236.754 55.5215 236.754 54.1543C236.754 52.8008 238.367 52.0488 241.129 52.0488ZM241.129 53.0195C239.174 53.0332 238.094 53.4297 238.107 54.1543C238.094 54.9199 239.174 55.3027 241.129 55.3027C243.084 55.3027 244.164 54.9199 244.164 54.1543C244.164 53.4297 243.084 53.0332 241.129 53.0195ZM246.721 56.998V58.0234H241.771V59.0762H245.312V61.9473H238.176V63.041H245.654V64.0391H236.904V61.0039H244.027V60.0469H236.891V59.0762H240.473V58.0234H235.551V56.998H246.721ZM255.416 53.7441C255.416 55.4668 256.523 56.998 258.383 57.5996L257.672 58.6113C256.325 58.126 255.334 57.1826 254.801 55.959C254.268 57.3604 253.201 58.4473 251.725 58.9805L251.027 57.9414C252.982 57.2715 254.117 55.6445 254.131 53.7988V52.5957H255.416V53.7441ZM261.281 51.9121V59.1445H259.982V55.4668H257.398V54.4004H259.982V51.9121H261.281ZM257.18 59.4863C259.75 59.4863 261.322 60.334 261.322 61.8242C261.322 63.3008 259.75 64.1484 257.18 64.1348C254.609 64.1484 253.023 63.3008 253.037 61.8242C253.023 60.334 254.609 59.4863 257.18 59.4863ZM257.18 60.498C255.389 60.498 254.322 60.9766 254.322 61.8242C254.322 62.6445 255.389 63.1094 257.18 63.1094C258.971 63.1094 260.037 62.6445 260.037 61.8242C260.037 60.9766 258.971 60.498 257.18 60.498ZM274.338 57.8594V58.8984H269.389V60.2109H272.971V64.1621H271.658V61.2637H264.412V60.2109H268.104V58.8984H263.168V57.8594H274.338ZM265.916 52.1992V53.5254H271.59V52.1992H272.889V56.834H264.631V52.1992H265.916ZM265.916 55.7949H271.59V54.4961H265.916V55.7949ZM285.016 52.6777V53.7578C285.016 54.9199 285.016 56.1777 284.674 57.9277H286.438V58.9941H281.475V64.1758H280.162V58.9941H275.268V57.9277H283.361C283.73 56.1846 283.73 54.8994 283.73 53.7578V53.7441H276.635V52.6777H285.016Z" fill="#2D2D2D"/>
<circle cx="207" cy="57" r="9" fill="#F0F0F0"/>
<path d="M206.958 53.1875C207.428 53.1875 207.878 53.3741 208.211 53.7062C208.543 54.0383 208.729 54.4887 208.729 54.9583C208.729 55.1909 208.683 55.4212 208.594 55.636C208.505 55.8509 208.375 56.0461 208.211 56.2105C208.046 56.3749 207.851 56.5054 207.636 56.5944C207.421 56.6834 207.191 56.7292 206.958 56.7292C206.489 56.7292 206.038 56.5426 205.706 56.2105C205.374 55.8784 205.188 55.428 205.188 54.9583C205.188 54.4887 205.374 54.0383 205.706 53.7062C206.038 53.3741 206.489 53.1875 206.958 53.1875ZM206.958 50C208.273 50 209.535 50.5224 210.464 51.4523C211.394 52.3821 211.917 53.6433 211.917 54.9583C211.917 58.6771 206.958 64.1667 206.958 64.1667C206.958 64.1667 202 58.6771 202 54.9583C202 53.6433 202.522 52.3821 203.452 51.4523C204.382 50.5224 205.643 50 206.958 50ZM206.958 51.4167C206.019 51.4167 205.118 51.7898 204.454 52.454C203.79 53.1182 203.417 54.019 203.417 54.9583C203.417 55.6667 203.417 57.0833 206.958 61.8363C210.5 57.0833 210.5 55.6667 210.5 54.9583C210.5 54.019 210.127 53.1182 209.463 52.454C208.798 51.7898 207.898 51.4167 206.958 51.4167Z" fill="#555555"/>
<path d="M858.609 72.9258V81.9492H857.311V72.9258H858.609ZM858.979 83.8496V84.9023H850.598V81.1152H851.91V83.8496H858.979ZM853.004 75.7695C853.004 77.3008 854.18 78.7227 856.08 79.2832L855.451 80.3086C854.016 79.8643 852.936 78.9414 852.389 77.752C851.835 79.0439 850.755 80.0488 849.299 80.5137L848.656 79.502C850.557 78.9004 851.705 77.3965 851.705 75.7695V75.5234H848.984V74.4844H851.705V72.9668H853.018V74.4844H855.711V75.5234H853.004V75.7695ZM864.898 74.7578C864.898 76.1523 866.02 77.5332 867.838 78.0801L867.223 79.1055C865.821 78.6748 864.796 77.7656 864.27 76.6309C863.709 77.8955 862.629 78.9209 861.193 79.3926L860.551 78.3672C862.396 77.752 863.6 76.2344 863.6 74.7441V74.5527H860.934V73.5H867.537V74.5527H864.898V74.7578ZM870.75 72.9121V79.2148H869.465V76.6309H867.182V75.5781H869.465V72.9121H870.75ZM870.75 79.7754V82.8379H864.064V84H871.188V85.0254H862.766V81.8535H869.465V80.8145H862.738V79.7754H870.75ZM882.275 72.9258V76.8633H884.053V77.9434H882.275V82.0859H880.977V72.9258H882.275ZM879.965 74.3477V75.4004H872.664V74.3477H875.672V72.9121H876.971V74.3477H879.965ZM876.314 75.9883C878.078 75.9883 879.281 76.9043 879.281 78.2988C879.281 79.6934 878.078 80.5957 876.314 80.5957C874.537 80.5957 873.334 79.6934 873.334 78.2988C873.334 76.9043 874.537 75.9883 876.314 75.9883ZM876.314 76.9863C875.275 76.9863 874.578 77.4922 874.592 78.2988C874.578 79.0918 875.275 79.584 876.314 79.584C877.354 79.584 878.051 79.0918 878.064 78.2988C878.051 77.4922 877.354 76.9863 876.314 76.9863ZM882.795 83.8496V84.9023H874.51V81.3613H875.809V83.8496H882.795ZM892.393 74.8672C892.393 76.4805 893.514 77.9707 895.346 78.5723L894.648 79.5977C893.309 79.126 892.304 78.1689 891.777 76.959C891.237 78.333 890.198 79.4062 888.77 79.9395L888.072 78.9004C889.986 78.2168 891.094 76.5898 891.107 74.7578V73.5547H892.393V74.8672ZM897.793 72.9121V75.9883H899.57V77.082H897.793V80.3086H896.494V72.9121H897.793ZM893.842 80.5957C896.357 80.5957 897.902 81.4297 897.902 82.8652C897.902 84.3145 896.357 85.1484 893.842 85.1348C891.299 85.1484 889.727 84.3145 889.727 82.8652C889.727 81.4297 891.299 80.5957 893.842 80.5957ZM893.842 81.6211C892.064 81.6211 891.012 82.0859 891.025 82.8652C891.012 83.6719 892.064 84.1094 893.842 84.123C895.605 84.1094 896.631 83.6719 896.631 82.8652C896.631 82.0859 895.605 81.6211 893.842 81.6211ZM909.893 72.9121V75.8242H911.67V76.9043H909.893V79.8301H908.594V72.9121H909.893ZM906.256 73.7188V74.7715H902.1V78.1484C904.485 78.1416 905.832 78.0527 907.363 77.752L907.514 78.791C905.859 79.1465 904.41 79.2012 901.785 79.2012H900.814V73.7188H906.256ZM909.893 80.4316V84.998H902.072V80.4316H909.893ZM903.344 81.4707V83.959H908.607V81.4707H903.344ZM925.41 72.9121V75.7969H927.188V76.877H925.41V79.8301H924.111V72.9121H925.41ZM922.033 73.6777C922.02 76.8223 919.9 79.0234 916.25 80.0078L915.73 78.9688C918.656 78.1963 920.386 76.6582 920.625 74.7441H916.305V73.6777H922.033ZM925.41 80.3496V84.998H917.562V80.3496H925.41ZM918.861 81.4297V83.959H924.125V81.4297H918.861ZM932.137 76.0293C932.123 78.2031 933.381 80.418 935.213 81.3066L934.406 82.3457C933.073 81.6553 932.041 80.2812 931.508 78.6406C930.954 80.3906 929.881 81.8535 928.486 82.5781L927.68 81.5254C929.566 80.623 930.838 78.2715 930.838 76.0293V73.9375H932.137V76.0293ZM937.428 72.9121V77.793H939.396V78.9004H937.428V85.1621H936.129V72.9121H937.428ZM949.609 72.9121V75.9883H951.387V77.082H949.609V80.0488H948.311V72.9121H949.609ZM943.061 80.5547V81.7441H948.311V80.5547H949.609V85.0117H941.775V80.5547H943.061ZM943.061 83.9727H948.311V82.7559H943.061V83.9727ZM947.299 74.1152V75.1543H939.998V74.1152H943.006V72.8027H944.305V74.1152H947.299ZM943.648 75.6602C945.412 75.6602 946.615 76.4941 946.615 77.8066C946.615 79.1055 945.412 79.9668 943.648 79.9531C941.857 79.9668 940.668 79.1055 940.668 77.8066C940.668 76.4941 941.857 75.6602 943.648 75.6602ZM943.648 76.6309C942.609 76.6172 941.912 77.0957 941.926 77.8066C941.912 78.5312 942.609 78.9961 943.648 78.9961C944.688 78.9961 945.385 78.5312 945.398 77.8066C945.385 77.0957 944.688 76.6172 943.648 76.6309ZM962.256 72.9121V85.1621H960.957V72.9121H962.256ZM954.121 74.1016V80.9238C955.905 80.9102 957.785 80.7666 959.754 80.3633L959.932 81.457C957.758 81.8945 955.789 82.0449 953.861 82.0449H952.836V74.1016H954.121ZM973.727 72.9121V77.6562H975.695V78.7227H973.727V85.1895H972.428V72.9121H973.727ZM970.432 74.0879V75.1406H966.002V81.0605C968.06 81.0537 969.604 80.9648 971.348 80.6504L971.512 81.7441C969.598 82.0859 967.971 82.1543 965.688 82.1406H964.703V74.0879H970.432ZM978.539 74.1016L978.416 81.1426H977.062L976.939 74.1016H978.539ZM977.746 84.0957C977.213 84.0957 976.762 83.6582 976.775 83.125C976.762 82.5918 977.213 82.1543 977.746 82.1543C978.266 82.1543 978.717 82.5918 978.717 83.125C978.717 83.6582 978.266 84.0957 977.746 84.0957Z" fill="#2D2D2D"/>
<path d="M1050.53 24.6504C1053.15 24.6641 1055.05 25.9492 1055.05 27.9043C1055.05 29.7432 1053.46 30.9531 1051.17 31.1445V33.5508H1056.16V34.6309H1044.95V33.5508H1049.88V31.1445C1047.61 30.9531 1046.01 29.7432 1046.01 27.9043C1046.01 25.9492 1047.91 24.6641 1050.53 24.6504ZM1050.53 25.7168C1048.64 25.7031 1047.27 26.5781 1047.27 27.9043C1047.27 29.2852 1048.64 30.1328 1050.53 30.1465C1052.43 30.1328 1053.79 29.2852 1053.79 27.9043C1053.79 26.5781 1052.43 25.7031 1050.53 25.7168ZM1067.59 25.2656V26.332H1057.62V25.2656H1061.98V23.8574H1063.27V25.2656H1067.59ZM1068.26 31.8418V32.9082H1063.27V36.1758H1061.98V32.9082H1057.05V31.8418H1068.26ZM1062.63 26.9609C1065.17 26.9609 1066.7 27.6855 1066.7 29.0254C1066.7 30.3379 1065.17 31.0625 1062.63 31.0762C1060.07 31.0625 1058.54 30.3379 1058.55 29.0254C1058.54 27.6855 1060.07 26.9609 1062.63 26.9609ZM1062.63 27.9316C1060.86 27.9316 1059.89 28.3145 1059.89 29.0254C1059.89 29.709 1060.86 30.0918 1062.63 30.0918C1064.38 30.0918 1065.35 29.709 1065.36 29.0254C1065.35 28.3145 1064.38 27.9316 1062.63 27.9316ZM1076.75 25.1016V35H1075.23V26.6055H1075.18L1072.81 28.1504V26.7148L1075.27 25.1016H1076.75ZM1079.26 35V33.9062L1082.7 30.4473C1083.78 29.3125 1084.32 28.6836 1084.32 27.8223C1084.32 26.8516 1083.53 26.2227 1082.49 26.2227C1081.4 26.2227 1080.69 26.9199 1080.69 27.9727H1079.26C1079.25 26.168 1080.63 24.9648 1082.52 24.9648C1084.43 24.9648 1085.74 26.168 1085.76 27.7812C1085.74 28.8887 1085.23 29.7637 1083.37 31.5957L1081.36 33.6328V33.7148H1085.92V35H1079.26ZM1088.56 33.7285C1088.03 33.7285 1087.58 33.291 1087.59 32.7578C1087.58 32.2246 1088.03 31.7871 1088.56 31.7871C1089.08 31.7871 1089.53 32.2246 1089.53 32.7578C1089.53 33.291 1089.08 33.7285 1088.56 33.7285ZM1088.56 28.3281C1088.03 28.3281 1087.58 27.8906 1087.59 27.3574C1087.58 26.8242 1088.03 26.3867 1088.56 26.3867C1089.08 26.3867 1089.53 26.8242 1089.53 27.3574C1089.53 27.8906 1089.08 28.3281 1088.56 28.3281ZM1094.65 35.1367C1092.77 35.1367 1091.36 33.9883 1091.3 32.416H1092.76C1092.84 33.2637 1093.65 33.8789 1094.65 33.8789C1095.85 33.8789 1096.71 33.0039 1096.71 31.8281C1096.71 30.625 1095.82 29.75 1094.58 29.7363C1093.78 29.7363 1093.18 29.9961 1092.84 30.6113H1091.42L1092.06 25.1016H1097.67V26.3867H1093.31L1092.98 29.1621H1093.07C1093.48 28.7656 1094.18 28.4922 1094.93 28.4922C1096.79 28.4922 1098.17 29.873 1098.17 31.7871C1098.17 33.7422 1096.71 35.1367 1094.65 35.1367ZM1103.53 25.1016V35H1102.01V26.6055H1101.96L1099.59 28.1504V26.7148L1102.06 25.1016H1103.53Z" fill="#555555"/>
<circle cx="1095.5" cy="59.5" r="9.5" fill="#FF5B4A"/>
<path d="M1096.89 54.8086V64H1095.48V56.2051H1095.43L1093.23 57.6396V56.3066L1095.52 54.8086H1096.89Z" fill="white"/>
<path d="M1 13C1 6.37258 6.37258 1 13 1H174V112H13C6.37259 112 1 106.627 1 100V13Z" fill="#EDF8F8"/>
<path d="M113.009 38.1192C113.009 37.6208 113.413 37.2168 113.911 37.2168C114.41 37.2168 114.814 37.6208 114.814 38.1192V66.3949C114.814 66.8933 114.41 67.2973 113.911 67.2973C113.413 67.2973 113.009 66.8933 113.009 66.3949V38.1192Z" fill="#9DD7D7"/>
<path d="M61.4814 46.7274C61.4814 46.229 61.8855 45.825 62.3839 45.825C62.8822 45.825 63.2863 46.229 63.2863 46.7274V66.2059C63.2863 66.7043 62.8822 67.1083 62.3839 67.1083C61.8855 67.1083 61.4814 66.7043 61.4814 66.2059V46.7274Z" fill="#9DD7D7"/>
<path d="M61.6341 43.5842H89.3309L93.6971 50.9715C93.8156 51.172 93.6711 51.4254 93.4381 51.4254H57.5268C57.2939 51.4254 57.1494 51.172 57.2679 50.9715L61.6341 43.5842Z" fill="#9DD7D7"/>
<path fill-rule="evenodd" clip-rule="evenodd" d="M61.1197 42.6818H89.8462L94.4744 50.5124C94.9485 51.3144 94.3703 52.3278 93.4386 52.3278H57.5273C56.5956 52.3278 56.0174 51.3145 56.4915 50.5124L61.1197 42.6818ZM62.1495 44.4866L58.5817 50.523H92.3842L88.8164 44.4866H62.1495Z" fill="#9DD7D7"/>
<path d="M84.4586 32H114.673L119.43 39.3774C119.559 39.5776 119.415 39.8412 119.177 39.8412H79.9546C79.7165 39.8412 79.5727 39.5776 79.7018 39.3774L84.4586 32Z" fill="#9DD7D7"/>
<path fill-rule="evenodd" clip-rule="evenodd" d="M83.9673 31.0976H115.166L120.189 38.8884C120.705 39.6891 120.13 40.7436 119.178 40.7436H79.9552C79.0025 40.7436 78.4277 39.6891 78.944 38.8884L83.9673 31.0976ZM84.951 32.9024L81.0589 38.9388H118.074L114.182 32.9024H84.951Z" fill="#9DD7D7"/>
<path d="M69.5381 60.2104C69.5381 58.1338 71.2215 56.4503 73.2981 56.4503Lnan nanL73.2981 56.4503C75.3748 56.4503 77.0582 58.1338 77.0582 60.2104V66.1011C77.0582 66.5857 76.6654 66.9785 76.1809 66.9785H70.4154C69.9309 66.9785 69.5381 66.5857 69.5381 66.1011V60.2104Z" fill="#9DD7D7"/>
<path d="M80.0654 57.2006C80.0654 55.9546 81.0755 54.9446 82.3215 54.9446Lnan nanL82.3215 54.9446C83.5674 54.9446 84.5775 55.9546 84.5775 57.2006V65.9741C84.5775 66.5279 84.1286 66.9768 83.5748 66.9768H81.0681C80.5143 66.9768 80.0654 66.5279 80.0654 65.9741V57.2006Z" fill="#9DD7D7"/>
<path d="M91.7256 63.7482C91.7256 59.4176 95.2362 55.907 99.5668 55.907Lnan nanL99.5668 55.907C103.897 55.907 107.408 59.4176 107.408 63.7482V66.1752C107.408 66.6908 106.99 67.1087 106.475 67.1087H92.6591C92.1435 67.1087 91.7256 66.6908 91.7256 66.1752V63.7482Z" fill="#9DD7D7"/>
<path fill-rule="evenodd" clip-rule="evenodd" d="M77.058 71.6606C77.7933 71.6606 78.3894 72.2567 78.3894 72.992C78.3894 76.9787 82.551 80.6847 88.3382 80.6847C94.1253 80.6847 98.2869 76.9787 98.2869 72.992C98.2869 72.2567 98.883 71.6606 99.6184 71.6606C100.354 71.6606 100.95 72.2567 100.95 72.992C100.95 78.9731 95.0108 83.3476 88.3382 83.3476C81.6656 83.3476 75.7266 78.9731 75.7266 72.992C75.7266 72.2567 76.3227 71.6606 77.058 71.6606Z" fill="#9DD7D7"/>
</svg>
