<svg width="14" height="11" viewBox="0 0 14 11" fill="none" xmlns="http://www.w3.org/2000/svg">
<path d="M10.1111 7.85908L7 9.53859L3.88889 7.85908V6.08461L3 5.61067V8.179C3 8.28925 3.06047 8.39062 3.15749 8.44299L6.85749 10.4404C6.94643 10.4884 7.05357 10.4884 7.14251 10.4404L10.8425 8.44299C10.9395 8.39062 11 8.28925 11 8.179V5.61067L10.1111 6.08461V7.85908Z" fill="#555555"/>
<path d="M7.11729 0.753834C7.04234 0.721995 6.95766 0.721995 6.88271 0.753834L0.182708 3.5999C0.0719305 3.64696 0 3.75566 0 3.87602V4.19446C0 4.31205 0.0687015 4.4188 0.17573 4.46751L7 7.57334L13 4.84267V6.60485C13 6.88099 13.2239 7.10485 13.5 7.10485C13.7761 7.10485 14 6.88099 14 6.60485V3.77203C14 3.71472 13.9658 3.66297 13.913 3.64056L7.11729 0.753834ZM12 4.36062L11 4.81573L7 6.63635L3 4.81573L2 4.36062L1.30691 4.04517L7 1.62682L12.6931 4.04517L12 4.36062Z" fill="#555555"/>
</svg>
