<svg width="25" height="24" viewBox="0 0 25 24" fill="none" xmlns="http://www.w3.org/2000/svg">
<g id="Group 8936">
<path id="Vector" d="M13.75 10.88C14.3467 10.88 14.919 11.1202 15.341 11.5478C15.7629 11.9754 16 12.5553 16 13.16V13.92C16 16.9159 13.21 20 8.5 20C3.79 20 1 16.9159 1 13.92V13.16C1 12.5553 1.23705 11.9754 1.65901 11.5478C2.08097 11.1202 2.65326 10.88 3.25 10.88H13.75ZM13.75 12.4H3.25C3.05109 12.4 2.86032 12.4801 2.71967 12.6226C2.57902 12.7651 2.5 12.9584 2.5 13.16V13.92C2.5 16.1058 4.648 18.48 8.5 18.48C12.352 18.48 14.5 16.1058 14.5 13.92V13.16C14.5 12.9584 14.421 12.7651 14.2803 12.6226C14.1397 12.4801 13.9489 12.4 13.75 12.4ZM8.5 1C9.59402 1 10.6432 1.44039 11.4168 2.22429C12.1904 3.0082 12.625 4.0714 12.625 5.18C12.625 6.2886 12.1904 7.3518 11.4168 8.13571C10.6432 8.91961 9.59402 9.36 8.5 9.36C7.40598 9.36 6.35677 8.91961 5.58318 8.13571C4.8096 7.3518 4.375 6.2886 4.375 5.18C4.375 4.0714 4.8096 3.0082 5.58318 2.22429C6.35677 1.44039 7.40598 1 8.5 1ZM8.5 2.52C7.80381 2.52 7.13613 2.80025 6.64384 3.2991C6.15156 3.79794 5.875 4.47452 5.875 5.18C5.875 5.88548 6.15156 6.56206 6.64384 7.0609C7.13613 7.55975 7.80381 7.84 8.5 7.84C9.19619 7.84 9.86387 7.55975 10.3562 7.0609C10.8484 6.56206 11.125 5.88548 11.125 5.18C11.125 4.47452 10.8484 3.79794 10.3562 3.2991C9.86387 2.80025 9.19619 2.52 8.5 2.52Z" fill="#717171" stroke="#717171" stroke-width="0.5"/>
<circle id="Ellipse 305" cx="16.5" cy="15.5" r="8.5" fill="white"/>
<path id="Vector_2" d="M11.2189 11.2383C11.3592 11.0985 11.5494 11.0199 11.7478 11.0199C11.9461 11.0199 12.1364 11.0985 12.2767 11.2383L15.49 14.4449L18.7033 11.2383C18.7948 11.14 18.9112 11.0682 19.0402 11.0303C19.1692 10.9925 19.306 10.99 19.4362 11.0232C19.5665 11.0565 19.6853 11.1242 19.7803 11.2191C19.8752 11.3141 19.9427 11.4329 19.9757 11.563C20.0091 11.6928 20.0067 11.8292 19.969 11.9578C19.9312 12.0865 19.8594 12.2026 19.7612 12.2939L16.5478 15.5004L19.7612 18.707C19.8597 18.7983 19.9317 18.9144 19.9696 19.0431C20.0076 19.1718 20.01 19.3083 19.9767 19.4383C19.9434 19.5683 19.8756 19.6869 19.7804 19.7816C19.6852 19.8764 19.5662 19.9437 19.4358 19.9766C19.3057 20.0099 19.169 20.0076 19.0401 19.9699C18.9112 19.9322 18.7949 19.8606 18.7033 19.7625L15.49 16.556L12.2767 19.7625C12.1347 19.8944 11.9471 19.9662 11.7531 19.9629C11.5592 19.9595 11.3742 19.8813 11.2368 19.7446C11.0999 19.6076 11.0215 19.4229 11.0181 19.2294C11.0148 19.0359 11.0868 18.8486 11.2189 18.707L14.4322 15.5004L11.2189 12.2939C11.0787 12.1539 11 11.964 11 11.7661C11 11.5682 11.0787 11.3784 11.2189 11.2383Z" fill="#717171" stroke="#717171" stroke-width="0.5"/>
</g>
</svg>
