<svg width="15" height="13" viewBox="0 0 15 13" fill="none" xmlns="http://www.w3.org/2000/svg">
<path fill-rule="evenodd" clip-rule="evenodd" d="M1.36062 7.01896H2.36387V11.9805C2.36387 12.0745 2.40192 12.1647 2.46964 12.2311C2.53737 12.2976 2.62923 12.3349 2.72501 12.3349H12.2743C12.3701 12.3349 12.4619 12.2976 12.5296 12.2311C12.5974 12.1647 12.6354 12.0745 12.6354 11.9805V7.01896H13.6394C13.7127 7.01885 13.7842 6.99686 13.8445 6.95589C13.9048 6.91493 13.9509 6.85693 13.9768 6.78962C14.0026 6.7223 14.007 6.64886 13.9893 6.57904C13.9716 6.50923 13.9327 6.44634 13.8777 6.39876L7.73835 1.08278C7.67245 1.02596 7.58772 0.994629 7.5 0.994629C7.41228 0.994629 7.32755 1.02596 7.26165 1.08278L1.12227 6.39876C1.06729 6.44634 1.02836 6.50923 1.01067 6.57904C0.992982 6.64886 0.997363 6.7223 1.02323 6.78962C1.0491 6.85693 1.09524 6.91493 1.1555 6.95589C1.21577 6.99686 1.28731 7.01885 1.36062 7.01896ZM2.72501 6.31016H2.31548L7.5 1.82135L12.6845 6.31016H12.275C12.1792 6.31016 12.0874 6.3475 12.0196 6.41396C11.9519 6.48042 11.9139 6.57057 11.9139 6.66456V11.6261H3.08687V6.66456C3.08687 6.57057 3.04882 6.48042 2.98109 6.41396C2.91337 6.3475 2.82151 6.31016 2.72573 6.31016" fill="#555555"/>
<path d="M2.72501 6.31016H2.31548L7.5 1.82135L12.6845 6.31016H12.275C12.1792 6.31016 12.0874 6.3475 12.0196 6.41396C11.9519 6.48042 11.9139 6.57057 11.9139 6.66456V11.6261H3.08687V6.66456C3.08687 6.57057 3.04882 6.48042 2.98109 6.41396C2.91337 6.3475 2.82151 6.31016 2.72573 6.31016M1.36062 7.01896H2.36387V11.9805C2.36387 12.0745 2.40192 12.1647 2.46964 12.2311C2.53737 12.2976 2.62923 12.3349 2.72501 12.3349H12.2743C12.3701 12.3349 12.4619 12.2976 12.5296 12.2311C12.5974 12.1647 12.6354 12.0745 12.6354 11.9805V7.01896H13.6394C13.7127 7.01885 13.7842 6.99686 13.8445 6.95589C13.9048 6.91493 13.9509 6.85693 13.9768 6.78962C14.0026 6.7223 14.007 6.64886 13.9893 6.57904C13.9716 6.50923 13.9327 6.44635 13.8777 6.39876L7.73835 1.08278C7.67245 1.02596 7.58772 0.994629 7.5 0.994629C7.41228 0.994629 7.32755 1.02596 7.26165 1.08278L1.12227 6.39876C1.06729 6.44635 1.02836 6.50923 1.01067 6.57904C0.992982 6.64886 0.997363 6.7223 1.02323 6.78962C1.0491 6.85693 1.09524 6.91493 1.1555 6.95589C1.21577 6.99686 1.28731 7.01885 1.36062 7.01896Z" stroke="#555555" stroke-width="0.2"/>
<path fill-rule="evenodd" clip-rule="evenodd" d="M8.37197 8.08276H6.56627C6.37471 8.08276 6.191 8.15744 6.05554 8.29037C5.92009 8.42329 5.84399 8.60358 5.84399 8.79156V11.6267C5.84399 11.8147 5.92009 11.995 6.05554 12.1279C6.191 12.2609 6.37471 12.3355 6.56627 12.3355H8.37197C8.56353 12.3355 8.74725 12.2609 8.8827 12.1279C9.01816 11.995 9.09425 11.8147 9.09425 11.6267V8.79156C9.09425 8.60358 9.01816 8.42329 8.8827 8.29037C8.74725 8.15744 8.56353 8.08276 8.37197 8.08276ZM6.56627 11.6267V8.79156H8.37197V11.6267H6.56627Z" fill="#555555" stroke="#555555" stroke-width="0.2"/>
</svg>
