<svg width="18" height="18" viewBox="0 0 18 18" fill="none" xmlns="http://www.w3.org/2000/svg">
<circle cx="9" cy="9" r="9" fill="#F0F0F0"/>
<path d="M8.95833 5.1875C9.42799 5.1875 9.87841 5.37407 10.2105 5.70617C10.5426 6.03826 10.7292 6.48868 10.7292 6.95833C10.7292 7.19088 10.6834 7.42115 10.5944 7.636C10.5054 7.85085 10.3749 8.04606 10.2105 8.2105C10.0461 8.37494 9.85085 8.50538 9.636 8.59437C9.42115 8.68336 9.19088 8.72917 8.95833 8.72917C8.48868 8.72917 8.03826 8.5426 7.70617 8.2105C7.37407 7.87841 7.1875 7.42799 7.1875 6.95833C7.1875 6.48868 7.37407 6.03826 7.70617 5.70617C8.03826 5.37407 8.48868 5.1875 8.95833 5.1875ZM8.95833 2C10.2734 2 11.5345 2.52239 12.4644 3.45226C13.3943 4.38213 13.9167 5.6433 13.9167 6.95833C13.9167 10.6771 8.95833 16.1667 8.95833 16.1667C8.95833 16.1667 4 10.6771 4 6.95833C4 5.6433 4.52239 4.38213 5.45226 3.45226C6.38213 2.52239 7.6433 2 8.95833 2ZM8.95833 3.41667C8.01903 3.41667 7.11819 3.78981 6.454 4.454C5.78981 5.11819 5.41667 6.01903 5.41667 6.95833C5.41667 7.66667 5.41667 9.08333 8.95833 13.8363C12.5 9.08333 12.5 7.66667 12.5 6.95833C12.5 6.01903 12.1269 5.11819 11.4627 4.454C10.7985 3.78981 9.89764 3.41667 8.95833 3.41667Z" fill="#555555"/>
</svg>
