<svg width="13" height="14" viewBox="0 0 13 14" fill="none" xmlns="http://www.w3.org/2000/svg">
<path id="Vector" d="M10.5683 3.23704C10.2324 2.45028 9.66707 1.77844 8.94324 1.30594C8.21941 0.833445 7.3694 0.58136 6.5 0.58136C5.6306 0.58136 4.78058 0.833445 4.05675 1.30594C3.33292 1.77844 2.76756 2.45028 2.4317 3.23704C1.70638 3.5623 1.09158 4.08518 0.66048 4.74344C0.229378 5.40171 0.000128115 6.16764 1.35233e-05 6.95007C-0.00579003 9.12516 1.85715 11.0042 4.07063 11.0611C4.75146 11.0772 5.42602 10.9301 6.03571 10.6324V12.8832C6.03571 13.004 6.08463 13.1199 6.1717 13.2053C6.25877 13.2907 6.37686 13.3387 6.5 13.3387C6.62313 13.3387 6.74123 13.2907 6.8283 13.2053C6.91537 13.1199 6.96428 13.004 6.96428 12.8832V10.6324C7.54147 10.9135 8.177 11.0603 8.82142 11.0611H8.92705C11.1428 11.0042 13.0064 9.12516 13 6.95007C12.9999 6.16764 12.7706 5.40171 12.3395 4.74344C11.9084 4.08518 11.2936 3.5623 10.5683 3.23704ZM8.90557 10.1501C8.21321 10.1678 7.53315 9.9683 6.96428 9.58068V7.24616L9.49347 6.00601C9.54804 5.97924 9.5967 5.94219 9.63668 5.89697C9.67665 5.85175 9.70715 5.79925 9.72645 5.74247C9.74574 5.68568 9.75344 5.62572 9.74912 5.56601C9.74479 5.50631 9.72853 5.44802 9.70124 5.39448C9.67396 5.34094 9.63619 5.2932 9.5901 5.25398C9.54401 5.21476 9.4905 5.18484 9.43262 5.16591C9.37474 5.14698 9.31363 5.13942 9.25277 5.14366C9.19192 5.14791 9.13251 5.16387 9.07794 5.19064L6.96428 6.22466V4.68388C6.96428 4.56307 6.91537 4.4472 6.8283 4.36178C6.74123 4.27635 6.62313 4.22836 6.5 4.22836C6.37686 4.22836 6.25877 4.27635 6.1717 4.36178C6.08463 4.4472 6.03571 4.56307 6.03571 4.68388V7.59121L3.92206 6.55377C3.81185 6.49971 3.68427 6.49081 3.56738 6.52904C3.45048 6.56727 3.35386 6.64949 3.29876 6.75762C3.24365 6.86574 3.23459 6.99091 3.27355 7.1056C3.31251 7.22028 3.39632 7.31508 3.50652 7.36915L6.03571 8.60929V9.57726C5.46699 9.96517 4.78683 10.1647 4.09442 10.1467C2.37367 10.1062 0.92394 8.64232 0.928583 6.95235C0.928143 6.31678 1.1221 5.6957 1.48537 5.16946C1.84864 4.64323 2.3645 4.23605 2.96621 4.0006C3.02657 3.97682 3.08117 3.94086 3.12646 3.89505C3.17175 3.84925 3.20672 3.79461 3.22911 3.73469C3.47401 3.07669 3.91915 2.50846 4.50422 2.10697C5.0893 1.70548 5.78602 1.49015 6.5 1.49015C7.21398 1.49015 7.9107 1.70548 8.49577 2.10697C9.08084 2.50846 9.52598 3.07669 9.77088 3.73469C9.79327 3.79461 9.82825 3.84925 9.87354 3.89505C9.91883 3.94086 9.97342 3.97682 10.0338 4.0006C10.6354 4.23618 11.1512 4.64339 11.5144 5.1696C11.8777 5.6958 12.0717 6.31681 12.0714 6.95235C12.0761 8.64232 10.6263 10.1062 8.90557 10.1501Z" fill="#555555"/>
</svg>
