<svg width="16" height="11" viewBox="0 0 16 11" fill="none" xmlns="http://www.w3.org/2000/svg">
<path id="Vector" fill-rule="evenodd" clip-rule="evenodd" d="M5.55 5.31469C6.90345 5.31469 8 4.21665 8 2.86135C8 1.50606 6.90345 0.40802 5.55 0.40802C4.19655 0.40802 3.1 1.50606 3.1 2.86135C3.1 4.21665 4.19655 5.31469 5.55 5.31469ZM7.3 2.86135C7.3 3.82972 6.51705 4.61373 5.55 4.61373C4.58295 4.61373 3.8 3.82972 3.8 2.86135C3.8 1.89299 4.58295 1.10897 5.55 1.10897C6.51705 1.10897 7.3 1.89299 7.3 2.86135ZM1.3 10.2214C1.13431 10.2214 1 10.087 1 9.92135V8.25869C1 6.76706 4.03135 6.01564 5.55 6.01564C6.5601 6.01564 8.23975 6.34824 9.25125 7.00994C9.97225 6.81472 10.7629 6.71659 11.325 6.71659C11.9753 6.71659 12.8478 6.84767 13.5685 7.11263C13.9276 7.24511 14.2717 7.41895 14.5317 7.64395C14.7938 7.87071 15 8.17738 15 8.5622V9.92135C15 10.087 14.8657 10.2214 14.7 10.2214H1.3ZM1.7 8.25869C1.7 8.14759 1.7511 7.99548 1.9681 7.79781C2.18965 7.59594 2.53055 7.40037 2.9621 7.23004C3.82695 6.88832 4.87695 6.71659 5.55 6.71659C6.22305 6.71659 7.2734 6.88832 8.13755 7.23004C8.56945 7.40037 8.91035 7.59594 9.13155 7.79781C9.3489 7.99548 9.4 8.14759 9.4 8.25869V9.5204H1.7V8.25869ZM9.87355 7.58227C10.4031 7.47257 10.9341 7.41754 11.325 7.41754C11.9015 7.41754 12.6911 7.53671 13.327 7.77082C13.6452 7.88788 13.9024 8.02597 14.0743 8.17457C14.244 8.32142 14.3 8.4504 14.3 8.56255V9.5204H10.1V8.25869C10.1 8.01335 10.0177 7.7873 9.87355 7.58227ZM13.25 4.08802C13.25 5.15312 12.3886 6.01564 11.325 6.01564C11.0722 6.01569 10.8219 5.96586 10.5883 5.869C10.3547 5.77215 10.1425 5.63016 9.96372 5.45116C9.78496 5.27215 9.64316 5.05963 9.54644 4.82574C9.44971 4.59185 9.39995 4.34117 9.4 4.08802C9.4 3.02292 10.2614 2.1604 11.325 2.1604C12.3886 2.1604 13.25 3.02292 13.25 4.08802ZM11.325 5.31469C12.0019 5.31469 12.55 4.76584 12.55 4.08802C12.55 3.4102 12.0019 2.86135 11.325 2.86135C11.1641 2.86126 11.0048 2.89293 10.8561 2.95454C10.7074 3.01615 10.5724 3.10651 10.4586 3.22043C10.3448 3.33436 10.2546 3.46962 10.1931 3.61849C10.1315 3.76735 10.0999 3.92691 10.1 4.08802C10.1 4.76584 10.6481 5.31469 11.325 5.31469Z" fill="#555555" stroke="#555555" stroke-width="0.1"/>
</svg>
