<svg width="11" height="13" viewBox="0 0 11 13" fill="none" xmlns="http://www.w3.org/2000/svg">
<path d="M5.08804 7.89219C5.08804 8.0102 5.18723 8.10586 5.30959 8.10586H5.9215C6.04385 8.10586 6.14305 8.0102 6.14305 7.89219V6.81172H7.24025C7.36261 6.81172 7.4618 6.71606 7.4618 6.59805V5.99007C7.4618 5.87207 7.36261 5.77641 7.24025 5.77641H6.14305V4.69593C6.14305 4.57793 6.04385 4.48227 5.92149 4.48227H5.30959C5.18723 4.48227 5.08804 4.57793 5.08804 4.69593V5.77641H3.99084C3.86848 5.77641 3.76929 5.87207 3.76929 5.99007V6.59805C3.76929 6.71606 3.86848 6.81172 3.99084 6.81172H5.08804V7.89219Z" fill="#555555"/>
<path d="M5.61564 12.6347C4.29117 12.2418 3.19067 11.4405 2.31414 10.2307C1.43761 9.021 0.999561 7.65783 1 6.14125V2.58046L5.61564 0.858673L10.2313 2.58046V6.14125C10.2313 7.65739 9.79324 9.02034 8.91714 10.2301C8.04105 11.4398 6.94055 12.2409 5.61564 12.6347ZM5.61564 11.9361C6.75856 11.5739 7.70367 10.8497 8.45096 9.76326C9.19826 8.67686 9.57191 7.46974 9.57191 6.14191V3.03017L5.61564 1.56188L1.65938 3.03017V6.14125C1.65938 7.46908 2.03302 8.6762 2.78032 9.76261C3.52761 10.849 4.47272 11.5739 5.61564 11.9361Z" fill="#555555" stroke="#555555" stroke-width="0.2"/>
</svg>
