<svg width="45" height="45" viewBox="0 0 45 45" fill="none" xmlns="http://www.w3.org/2000/svg">
<rect width="45" height="45" rx="8" fill="#E4E4E4"/>
<path d="M25.3953 27.1819L18.7555 24.1617M25.5032 17.2091L18.6476 20.9487M15.483 26.271C15.9553 26.271 16.423 26.178 16.8593 25.9972C17.2956 25.8165 17.6921 25.5516 18.026 25.2177C18.36 24.8837 18.6249 24.4873 18.8056 24.0509C18.9864 23.6146 19.0794 23.147 19.0794 22.6747C19.0794 22.2024 18.9864 21.7347 18.8056 21.2984C18.6249 20.8621 18.36 20.4656 18.026 20.1317C17.6921 19.7977 17.2956 19.5328 16.8593 19.3521C16.423 19.1714 15.9553 19.0783 15.483 19.0783C14.5292 19.0783 13.6145 19.4572 12.9401 20.1317C12.2656 20.8061 11.8867 21.7209 11.8867 22.6747C11.8867 23.6285 12.2656 24.5432 12.9401 25.2177C13.6145 25.8921 14.5292 26.271 15.483 26.271ZM28.6677 19.0794C29.14 19.0794 29.6077 18.9864 30.044 18.8057C30.4803 18.625 30.8768 18.3601 31.2107 18.0261C31.5447 17.6922 31.8096 17.2957 31.9903 16.8594C32.1711 16.423 32.2641 15.9554 32.2641 15.4831C32.2641 15.0108 32.1711 14.5432 31.9903 14.1069C31.8096 13.6705 31.5447 13.2741 31.2107 12.9401C30.8768 12.6062 30.4803 12.3413 30.044 12.1605C29.6077 11.9798 29.14 11.8868 28.6677 11.8868C27.7139 11.8868 26.7992 12.2657 26.1248 12.9401C25.4503 13.6146 25.0714 14.5293 25.0714 15.4831C25.0714 16.4369 25.4503 17.3517 26.1248 18.0261C26.7992 18.7006 27.7139 19.0794 28.6677 19.0794ZM28.6677 32.2641C29.6216 32.2641 30.5363 31.8853 31.2107 31.2108C31.8852 30.5364 32.2641 29.6216 32.2641 28.6678C32.2641 27.714 31.8852 26.7993 31.2107 26.1248C30.5363 25.4504 29.6216 25.0715 28.6677 25.0715C27.7139 25.0715 26.7992 25.4504 26.1248 26.1248C25.4503 26.7993 25.0714 27.714 25.0714 28.6678C25.0714 29.6216 25.4503 30.5364 26.1248 31.2108C26.7992 31.8853 27.7139 32.2641 28.6677 32.2641Z" stroke="#555555" stroke-width="2" stroke-linecap="round" stroke-linejoin="round"/>
</svg>
