<svg width="90" height="90" viewBox="0 0 90 90" fill="none" xmlns="http://www.w3.org/2000/svg">
<path d="M15 67.5C15 63.5218 16.5804 59.7064 19.3934 56.8934C22.2064 54.0804 26.0218 52.5 30 52.5H60C63.9782 52.5 67.7936 54.0804 70.6066 56.8934C73.4196 59.7064 75 63.5218 75 67.5C75 69.4891 74.2098 71.3968 72.8033 72.8033C71.3968 74.2098 69.4891 75 67.5 75H22.5C20.5109 75 18.6032 74.2098 17.1967 72.8033C15.7902 71.3968 15 69.4891 15 67.5Z" stroke="#169898" stroke-width="5" stroke-linejoin="round"/>
<path d="M45 42.5C51.2132 42.5 56.25 37.4632 56.25 31.25C56.25 25.0368 51.2132 20 45 20C38.7868 20 33.75 25.0368 33.75 31.25C33.75 37.4632 38.7868 42.5 45 42.5Z" stroke="#169898" stroke-width="5"/>
</svg>
