<svg width="14" height="11" viewBox="0 0 14 11" fill="none" xmlns="http://www.w3.org/2000/svg">
<path d="M2.22863 8.82492H1.64286C1.55842 8.82492 1.4748 8.80859 1.39678 8.77687C1.31876 8.74515 1.24788 8.69865 1.18818 8.64004C1.12848 8.58142 1.08114 8.51184 1.04885 8.43527C1.01656 8.35869 0.99996 8.27662 1 8.19375V1.8842C1.00008 1.71691 1.06784 1.55649 1.18838 1.4382C1.30892 1.3199 1.47239 1.25341 1.64286 1.25333H10.8244C10.9593 1.25277 11.0909 1.2939 11.2006 1.37088C11.3103 1.44786 11.3925 1.55678 11.4355 1.68219L12.5734 4.94433L12.6055 5.13998V8.19375C12.6056 8.27662 12.589 8.35869 12.5567 8.43527C12.5244 8.51184 12.477 8.58142 12.4173 8.64004C12.3576 8.69865 12.2868 8.74515 12.2087 8.77687C12.1307 8.80859 12.0471 8.82492 11.9626 8.82492H11.3775" stroke="#555555" stroke-width="0.9" stroke-linecap="round" stroke-linejoin="round"/>
<path d="M1 5.03912H12.5734M8.71561 8.82491H4.90935M4.85781 5.03912H8.71561V1.25333H4.85781V5.03912Z" stroke="#555555" stroke-width="0.9" stroke-linecap="round" stroke-linejoin="round"/>
<path d="M3.57266 7.55966C3.23158 7.55966 2.90447 7.69263 2.66329 7.9293C2.42211 8.16598 2.28662 8.48698 2.28662 8.82169C2.28662 9.15641 2.42211 9.47741 2.66329 9.71409C2.90447 9.95076 3.23158 10.0837 3.57266 10.0837C3.91374 10.0837 4.24085 9.95076 4.48203 9.71409C4.7232 9.47741 4.8587 9.15641 4.8587 8.82169C4.8587 8.48698 4.7232 8.16598 4.48203 7.9293C4.24085 7.69263 3.91374 7.55966 3.57266 7.55966ZM10.0025 7.55966C9.66146 7.55966 9.33435 7.69263 9.09318 7.9293C8.852 8.16598 8.7165 8.48698 8.7165 8.82169C8.7165 9.15641 8.852 9.47741 9.09318 9.71409C9.33435 9.95076 9.66146 10.0837 10.0025 10.0837C10.3436 10.0837 10.6707 9.95076 10.9119 9.71409C11.1531 9.47741 11.2886 9.15641 11.2886 8.82169C11.2886 8.48698 11.1531 8.16598 10.9119 7.9293C10.6707 7.69263 10.3436 7.55966 10.0025 7.55966Z" stroke="#555555" stroke-width="0.9" stroke-linecap="round" stroke-linejoin="round"/>
</svg>
