<svg width="13" height="12" viewBox="0 0 13 12" fill="none" xmlns="http://www.w3.org/2000/svg">
<path d="M10.4444 7.13302C11.2722 6.33705 12.1111 5.38298 12.1111 4.1345C12.1111 3.33925 11.7892 2.57656 11.2162 2.01423C10.6431 1.4519 9.86594 1.13599 9.05556 1.13599C8.07778 1.13599 7.38889 1.40858 6.55556 2.22636C5.72222 1.40858 5.03333 1.13599 4.05556 1.13599C3.24517 1.13599 2.46798 1.4519 1.89495 2.01423C1.32192 2.57656 1 3.33925 1 4.1345C1 5.38843 1.83333 6.34251 2.66667 7.13302L6.55556 10.9493L10.4444 7.13302Z" stroke="#555555" stroke-width="0.9" stroke-linecap="round" stroke-linejoin="round"/>
<path d="M6.55534 2.22636L4.9109 3.84011C4.79802 3.95008 4.70843 4.08088 4.6473 4.22497C4.58616 4.36907 4.55469 4.52361 4.55469 4.6797C4.55469 4.83578 4.58616 4.99033 4.6473 5.13442C4.70843 5.27852 4.79802 5.40932 4.9109 5.51928C5.36645 5.96633 6.09423 5.98269 6.57756 5.55745L7.72756 4.52159C8.01581 4.26492 8.39111 4.12273 8.78034 4.12273C9.16957 4.12273 9.54487 4.26492 9.83312 4.52159L11.4776 5.97179M9.88867 7.67822L8.77756 6.58785M8.22201 9.31377L7.1109 8.2234" stroke="#555555" stroke-width="0.9" stroke-linecap="round" stroke-linejoin="round"/>
</svg>
