<svg width="854" height="286" viewBox="0 0 854 286" fill="none" xmlns="http://www.w3.org/2000/svg">
<path d="M517.577 48.5665C521.895 50.5098 524.702 52.8849 525.566 55.9077C526.429 59.5783 526.861 68.8627 526.861 83.545C526.645 98.2273 525.997 107.08 524.918 110.103C522.759 115.716 517.577 119.171 509.156 120.251C505.917 120.683 503.974 121.33 503.542 122.194C502.894 123.274 502.462 126.296 502.462 131.262C502.247 136.013 502.462 138.819 503.326 139.467C503.974 140.115 506.997 140.331 512.395 140.115C516.713 140.115 523.406 139.683 532.259 139.035C540.032 138.388 544.566 138.172 546.293 138.604C548.237 139.467 549.964 140.763 551.691 142.922C553.419 145.081 554.282 147.24 554.282 148.968C554.282 151.559 551.475 153.934 546.078 155.877C540.68 158.036 535.498 158.684 530.747 157.82C524.702 156.956 511.531 158.036 490.803 160.627C488.212 161.059 483.678 161.059 476.984 161.059C470.075 161.059 463.382 161.275 456.904 161.707C447.836 162.354 442.222 162.354 439.847 161.491C437.256 160.843 436.176 158.684 436.176 155.229C436.176 151.99 437.256 149.615 439.415 148.32C441.574 147.024 446.54 145.945 453.881 144.865C455.393 144.649 458.2 144.217 462.086 143.786C464.029 143.354 467.484 143.138 472.234 142.706C476.984 142.274 479.791 141.626 480.439 140.763C481.087 139.899 481.519 136.228 481.519 130.183V122.626H478.28C478.064 122.626 474.177 122.842 466.62 123.058C460.143 123.274 455.609 122.626 452.586 120.898C449.563 119.387 447.404 116.58 446.108 112.478C444.813 108.591 444.165 99.3068 443.949 85.0564C443.517 70.8059 443.949 62.6011 445.245 60.6578C447.404 56.7714 450.427 55.9077 454.529 57.8509C456.688 59.1464 458.416 60.8738 459.279 63.4648C460.143 66.0557 460.791 69.9422 461.007 74.9083C461.007 77.2834 461.222 78.7948 461.654 79.2266C462.086 79.8744 463.382 80.0903 465.109 79.6585C467.052 79.2266 469.427 79.0107 472.45 78.5789C477.2 78.147 482.166 77.2834 487.348 76.2038C489.076 75.9879 492.314 75.5561 497.28 74.9083C501.599 74.4765 503.974 73.8287 504.838 73.3969C505.485 72.9651 505.917 71.4537 505.917 68.8627C505.917 66.2717 505.269 64.1125 504.406 62.1693C503.11 59.7942 502.894 57.2032 503.326 54.1804C503.758 51.3734 505.053 49.4302 507.213 48.1347C509.588 46.6233 513.042 46.8392 517.577 48.5665ZM489.939 92.8293C487.78 93.2612 485.837 93.693 484.326 93.9089C479.575 94.9885 476.553 95.6363 475.689 96.0681C474.825 96.4999 472.45 96.7158 468.995 96.7158C465.541 97.1477 463.166 97.7954 462.086 99.0909C461.007 100.386 461.222 102.114 462.95 104.057C463.382 104.921 467.268 105.352 475.041 105.568C482.598 105.784 488.212 105.568 492.099 104.921C500.519 103.841 505.269 102.977 506.133 102.114C506.565 101.682 506.997 100.17 507.429 97.3636C507.86 94.5567 508.076 93.0453 507.644 92.6134C507.213 92.1816 505.053 91.9657 501.167 91.7498C497.28 91.7498 494.689 91.7498 493.61 91.9657C493.178 91.9657 492.099 92.3975 489.939 92.8293ZM519.304 169.911L520.384 170.127C521.247 170.343 521.679 170.559 522.111 170.559C524.918 171.207 526.861 172.502 527.941 174.446C529.02 176.605 529.668 180.059 530.1 185.026C530.316 190.208 530.747 194.31 531.395 197.333C531.827 200.14 532.043 204.674 532.043 210.935C532.043 217.197 531.611 221.084 530.963 222.595C530.1 224.754 527.293 226.913 522.975 228.641C520.168 229.72 517.577 228.857 515.202 225.834C512.826 222.811 511.747 219.356 512.179 215.038C512.611 211.151 512.179 204.026 511.099 193.878C510.883 191.719 510.02 190.423 508.508 189.992C506.997 189.56 502.678 189.56 495.337 189.776C487.564 190.208 482.814 190.423 480.871 190.855C478.496 191.287 475.473 191.719 471.586 192.151C466.836 192.583 463.813 193.014 462.086 193.23C453.881 194.742 449.563 191.719 448.699 184.378C448.268 180.275 449.563 177.684 452.802 176.389C455.825 175.309 464.893 174.23 480.007 172.934C485.621 172.502 489.723 172.286 492.314 171.855C495.769 171.423 500.735 171.207 507.213 170.775C513.69 170.559 517.145 170.343 517.577 169.911C517.793 169.695 518.44 169.695 519.304 169.911ZM674.139 61.0897C676.73 62.1693 678.457 63.6807 679.105 65.6239C679.753 67.5672 680.185 72.9651 680.617 81.6017C680.833 89.1588 681.048 93.4771 681.48 94.7726C681.912 96.0681 682.992 96.4999 685.151 96.4999C689.469 96.4999 693.572 97.1477 697.026 98.2273C700.481 99.5228 702.856 101.034 703.936 102.761C705.663 106.432 705.663 109.455 703.936 112.046C702.208 114.637 699.185 115.716 695.299 115.285C689.469 114.637 685.799 114.637 684.503 115.285C683.855 115.501 683.424 116.148 683.424 117.228C683.424 118.523 683.424 121.546 683.855 126.728C684.071 133.853 684.071 138.388 683.639 140.547C683.208 142.706 681.912 144.865 679.753 147.024C678.026 149.183 677.378 150.479 678.026 150.479C682.992 151.99 686.23 154.797 687.742 159.116C689.253 163.434 690.117 171.639 690.333 183.946C690.333 188.696 690.549 193.662 690.981 198.412C691.412 202.947 691.628 205.969 691.197 207.481C690.765 208.992 689.685 210.504 687.742 211.799C684.935 213.958 681.912 214.606 678.457 213.526C675.003 212.447 673.06 210.288 672.196 207.049C672.196 207.049 671.98 206.401 671.548 205.106C671.116 203.81 670.9 202.947 670.9 202.083C670.253 199.924 670.037 194.742 670.253 186.321C670.253 179.412 670.037 175.309 669.605 174.014C669.173 172.718 667.878 171.855 665.718 171.423C662.264 170.991 657.514 171.423 651.9 172.286C649.741 172.718 646.718 173.15 642.831 173.582C638.729 174.014 634.627 174.446 630.308 175.093C627.933 175.525 623.831 176.389 618.001 177.253C616.705 177.468 615.194 177.684 613.035 178.116C610.876 178.548 609.364 178.764 608.932 178.764C604.614 179.628 601.16 178.332 599 175.093C597.273 172.934 597.057 170.127 598.137 167.104C599 164.082 600.728 162.138 603.319 161.491C604.398 161.491 606.342 161.059 609.364 160.627C614.114 159.763 619.512 158.9 625.774 158.036C630.956 157.388 635.49 156.741 639.593 155.877C647.15 154.581 654.923 153.286 663.127 152.422C668.525 151.99 671.548 151.343 672.196 150.911C672.844 150.695 673.707 150.479 674.787 150.479C676.73 150.479 676.082 149.615 672.844 147.888C669.821 146.592 667.878 144.001 666.582 140.331C665.287 136.876 664.207 131.047 663.775 122.842C663.127 114.637 662.696 101.466 662.48 83.329C662.264 73.8287 662.48 67.999 662.912 65.8398C663.343 63.6807 664.423 62.1693 666.582 61.0897C668.525 60.0101 671.116 60.0101 674.139 61.0897ZM623.399 64.5443C625.99 66.2717 627.285 69.2945 627.069 73.3969C626.854 77.2834 625.99 80.0903 624.263 81.3858C622.535 82.6813 618.649 83.7609 612.819 84.6245C609.148 85.2723 605.046 86.1359 600.512 87.4314C595.762 88.7269 593.387 89.8065 593.387 90.2383C592.307 93.693 591.875 98.0113 591.875 103.193C591.875 106.432 591.659 110.319 591.227 114.853C590.796 119.819 591.011 122.626 591.875 123.058C592.739 123.489 596.409 123.058 602.887 121.546C610.876 119.819 617.353 118.523 622.319 117.66C627.069 116.796 631.172 116.58 634.195 116.58C637.218 116.796 639.161 117.444 640.456 118.523C641.536 119.819 641.968 121.546 641.968 123.705C641.968 127.16 640.888 129.751 638.729 131.694C636.57 133.853 633.979 134.717 630.524 134.717C627.933 134.717 622.535 136.013 614.546 138.388L610.876 139.683C609.364 140.115 608.501 140.331 608.501 140.331C606.342 140.979 603.103 141.626 598.353 142.274C593.602 142.922 589.932 143.138 587.557 143.138C582.159 143.138 578.272 142.058 575.681 139.683C573.09 137.308 572.011 133.637 572.227 128.887C572.227 120.898 572.659 112.91 573.306 105.137V104.057C573.738 97.1477 573.738 92.8293 573.738 91.5339C573.522 90.2383 572.659 89.3747 571.147 88.511C570.931 88.511 570.715 88.2951 570.715 88.2951C567.477 86.9996 565.533 85.0564 564.67 82.4654C563.806 80.0903 564.022 77.9311 565.533 75.772C567.045 73.8287 569.636 72.5332 573.09 72.1014C582.159 70.8059 589.068 69.7263 594.25 68.4308C597.273 67.5672 599.216 67.1353 600.512 67.1353C604.398 67.1353 608.501 66.2717 612.819 64.5443C617.137 62.817 620.592 62.817 623.399 64.5443ZM814.388 60.226C816.763 61.0897 818.491 62.1693 819.786 63.4648C821.082 65.1921 821.945 73.181 822.593 87.4314C822.593 88.0792 822.809 88.7269 822.809 89.5906C822.809 94.7726 823.241 97.5795 823.889 98.4432C824.536 99.3068 826.48 99.9546 829.718 99.9546H831.446C838.355 100.386 843.105 101.898 845.264 104.489C848.071 107.943 848.503 111.398 846.344 114.637C844.185 117.876 840.73 118.955 836.412 117.66C831.23 116.364 827.991 116.364 826.48 117.444C824.752 118.739 824.32 121.546 824.968 126.296C825.4 132.342 825.4 136.66 824.968 139.467C824.536 142.49 823.241 145.081 821.082 147.24C818.491 149.831 816.116 150.695 813.956 150.047C811.581 149.399 810.07 147.24 809.638 143.57C809.422 142.274 808.99 140.763 808.127 139.035C806.831 136.444 805.752 129.967 804.888 119.387C804.024 109.023 803.808 101.466 804.24 96.9318C804.456 94.5567 804.456 91.9657 804.024 89.1588C803.592 86.3519 803.592 83.545 803.808 80.954C804.024 78.5789 804.024 75.9879 803.592 73.3969C802.513 67.1353 804.24 62.817 808.774 60.4419C810.07 59.5783 812.013 59.5783 814.388 60.226ZM771.637 65.6239C774.228 66.0557 776.819 67.1353 779.41 68.6467C783.296 71.2377 784.592 78.147 783.728 89.5906C783.296 94.3408 783.512 98.0113 784.16 100.602C785.24 105.352 785.24 112.262 783.944 121.114C782.649 130.183 780.705 136.228 778.546 139.683C777.683 140.979 776.603 142.058 775.307 142.706C774.012 143.354 771.853 144.001 768.398 144.865C762.352 146.592 757.818 147.888 754.795 148.752C748.75 150.695 742.056 150.695 734.499 148.752C726.942 147.024 722.408 144.217 720.681 140.331C718.953 136.444 717.658 126.296 716.362 109.887C715.067 93.4771 714.851 83.1131 715.931 78.7948C716.578 75.5561 718.09 73.3969 720.249 72.1014C722.408 71.0218 724.783 71.2377 727.374 72.5332C729.533 73.8287 730.829 75.3401 731.476 77.2834C732.124 79.2266 732.772 83.329 733.204 89.3747C733.204 93.693 733.636 96.0681 734.067 96.7158C734.499 97.5795 735.579 97.5795 737.306 97.1477C738.602 96.7158 742.056 96.284 747.454 95.4203C748.102 95.4203 749.182 95.2044 750.693 94.9885C757.17 94.1248 761.057 93.2612 762.352 92.6134C763.432 92.1816 764.08 90.6702 764.296 88.0792C764.296 87.6474 764.296 87.2155 764.512 86.9996C764.512 84.4086 764.512 82.8972 764.512 82.0335C764.296 81.1699 763.864 79.8744 763 78.147C760.409 72.7491 761.273 68.6467 765.591 66.0557C766.887 65.1921 769.046 65.1921 771.637 65.6239ZM759.114 109.023C754.579 109.455 750.045 110.103 745.511 111.398C743.568 111.83 741.625 112.262 739.465 112.478C737.09 112.91 735.795 113.341 735.363 113.989C734.931 114.853 735.147 117.012 735.579 120.683C736.011 125.649 736.658 128.671 737.954 129.535C739.249 130.399 742.488 130.615 747.67 130.183C755.875 129.535 761.057 127.592 763.648 124.137C764.512 123.058 765.159 120.683 766.023 116.796C766.887 113.125 767.103 110.966 766.671 110.103C766.023 109.239 763.432 108.807 759.114 109.023ZM819.57 155.013C827.775 156.741 833.605 159.116 837.491 162.354C840.73 165.377 842.673 169.048 843.537 173.798C844.401 178.548 843.753 183.082 841.594 187.401C839.435 192.151 834.468 197.117 826.911 201.867C819.354 206.833 811.15 210.72 802.081 213.311C793.013 215.902 785.671 216.765 779.842 215.686C772.069 214.39 766.023 210.504 761.273 203.81C756.523 197.117 755.227 190.423 757.386 183.514C757.818 182.65 758.25 180.707 758.682 178.116C759.546 173.15 761.705 169.48 765.159 166.889C768.398 164.298 775.739 161.059 786.967 156.956C787.615 156.956 788.262 156.741 789.126 156.309C789.774 156.093 790.422 155.877 791.069 155.661C791.501 155.445 791.933 155.229 792.149 155.229C792.797 155.013 794.524 154.581 797.115 154.15C803.808 153.07 811.365 153.286 819.57 155.013ZM806.615 169.911C799.706 169.911 794.524 170.343 791.285 171.207C786.967 172.502 783.944 173.582 782.217 174.662C780.489 175.741 778.762 177.468 777.251 180.059C773.148 186.105 772.501 190.639 775.307 193.446C777.898 196.469 783.296 197.117 791.285 195.39C799.49 193.662 805.752 192.151 809.638 190.639C813.525 189.344 817.195 187.185 820.218 184.594C823.673 181.787 825.4 179.412 825.4 177.468C825.4 175.741 823.457 173.798 820.002 171.639C817.843 170.559 813.525 169.911 806.615 169.911Z" fill="#2D2D2D"/>
<rect x="310.218" y="34.3301" width="9.84626" height="164.104" rx="4.92313" fill="#2D2D2D"/>
<rect x="29.1055" y="81.2959" width="9.84626" height="116.111" rx="4.92313" fill="#2D2D2D"/>
<path d="M29.9388 69.0635H181.038L204.858 109.365C205.505 110.459 204.716 111.841 203.446 111.841H7.53145C6.26071 111.841 5.47215 110.459 6.11871 109.365L29.9388 69.0635Z" fill="#3CAFAF" stroke="#2D2D2D" stroke-width="9.84626"/>
<path d="M154.453 5.86719H319.289L345.239 46.1146C345.943 47.2067 345.159 48.645 343.86 48.645H129.881C128.582 48.645 127.798 47.2067 128.502 46.1146L154.453 5.86719Z" fill="#3CAFAF" stroke="#2D2D2D" stroke-width="9.84626"/>
<path d="M73.0405 159.748C73.0405 148.419 82.2245 139.235 93.5536 139.235C104.883 139.235 114.067 148.419 114.067 159.748V191.885C114.067 194.529 111.924 196.672 109.28 196.672H77.8269C75.1835 196.672 73.0405 194.529 73.0405 191.885V159.748Z" fill="#2D2D2D"/>
<path d="M130.497 143.351C130.497 136.553 136.007 131.043 142.804 131.043C149.602 131.043 155.112 136.553 155.112 143.351V191.215C155.112 194.236 152.663 196.685 149.642 196.685H135.967C132.946 196.685 130.497 194.236 130.497 191.215V143.351Z" fill="#2D2D2D"/>
<path d="M194.113 179.064C194.113 155.438 213.266 136.286 236.891 136.286C260.517 136.286 279.669 155.438 279.669 179.064V192.305C279.669 195.117 277.389 197.397 274.576 197.397H199.206C196.393 197.397 194.113 195.117 194.113 192.305V179.064Z" fill="#2D2D2D"/>
<path d="M237.151 229.489C237.151 256.679 209.599 278.721 175.612 278.721C141.625 278.721 114.073 256.679 114.073 229.489" stroke="#2D2D2D" stroke-width="14.5272" stroke-linecap="round"/>
</svg>
