<svg width="152" height="54" viewBox="0 0 152 54" fill="none" xmlns="http://www.w3.org/2000/svg">
<path d="M81.2172 8.08059C82.1138 8.48407 82.6966 8.9772 82.876 9.60483C83.0553 10.367 83.1449 12.2947 83.1449 15.3432C83.1001 18.3916 82.9656 20.2297 82.7415 20.8573C82.2932 22.0229 81.2172 22.7402 79.4688 22.9644C78.7964 23.054 78.3929 23.1885 78.3032 23.3678C78.1687 23.592 78.0791 24.2196 78.0791 25.2507C78.0343 26.237 78.0791 26.8198 78.2584 26.9543C78.3929 27.0888 79.0205 27.1336 80.1413 27.0888C81.0379 27.0888 82.4277 26.9991 84.2657 26.8646C85.8796 26.7301 86.8211 26.6853 87.1797 26.775C87.5832 26.9543 87.9418 27.2233 88.3005 27.6716C88.6591 28.1199 88.8384 28.5682 88.8384 28.9268C88.8384 29.4648 88.2556 29.9579 87.1349 30.3614C86.0141 30.8097 84.9382 30.9442 83.9519 30.7649C82.6966 30.5856 79.962 30.8097 75.6582 31.3477C75.1203 31.4373 74.1788 31.4373 72.7891 31.4373C71.3545 31.4373 69.9647 31.4822 68.6198 31.5718C66.7369 31.7063 65.5713 31.7063 65.0782 31.527C64.5402 31.3925 64.3161 30.9442 64.3161 30.2269C64.3161 29.5545 64.5402 29.0613 64.9885 28.7923C65.4368 28.5234 66.4679 28.2992 67.9922 28.0751C68.306 28.0302 68.8888 27.9406 69.6958 27.8509C70.0992 27.7612 70.8165 27.7164 71.8028 27.6267C72.7891 27.5371 73.3719 27.4026 73.5064 27.2233C73.6408 27.0439 73.7305 26.2818 73.7305 25.0266V23.4575H73.0581C73.0132 23.4575 72.2063 23.5023 70.6372 23.5472C69.2923 23.592 68.3508 23.4575 67.7232 23.0989C67.0956 22.785 66.6473 22.2022 66.3783 21.3505C66.1093 20.5435 65.9748 18.6158 65.93 15.657C65.8403 12.6981 65.93 10.9946 66.199 10.5911C66.6473 9.78416 67.2749 9.60483 68.1267 10.0083C68.575 10.2773 68.9336 10.6359 69.113 11.1739C69.2923 11.7119 69.4268 12.5188 69.4716 13.5499C69.4716 14.0431 69.5164 14.3569 69.6061 14.4465C69.6958 14.581 69.9647 14.6259 70.3234 14.5362C70.7269 14.4465 71.22 14.4017 71.8476 14.312C72.8339 14.2224 73.865 14.0431 74.9409 13.8189C75.2996 13.7741 75.972 13.6844 77.0031 13.5499C77.8998 13.4603 78.3929 13.3258 78.5722 13.2361C78.7067 13.1465 78.7964 12.8326 78.7964 12.2947C78.7964 11.7567 78.6619 11.3084 78.4826 10.9049C78.2136 10.4118 78.1687 9.87382 78.2584 9.24619C78.3481 8.66339 78.617 8.25992 79.0654 7.99093C79.5585 7.67712 80.2758 7.72195 81.2172 8.08059ZM75.4789 17.2709C75.0306 17.3605 74.6271 17.4502 74.3133 17.495C73.327 17.7192 72.6994 17.8537 72.5201 17.9433C72.3408 18.033 71.8476 18.0778 71.1303 18.0778C70.413 18.1675 69.9199 18.302 69.6958 18.571C69.4716 18.8399 69.5164 19.1986 69.8751 19.6021C69.9647 19.7814 70.7717 19.871 72.3856 19.9159C73.9547 19.9607 75.1203 19.9159 75.9272 19.7814C77.6756 19.5572 78.6619 19.3779 78.8412 19.1986C78.9309 19.1089 79.0205 18.7951 79.1102 18.2123C79.1998 17.6295 79.2447 17.3157 79.155 17.226C79.0654 17.1364 78.617 17.0915 77.8101 17.0467C77.0031 17.0467 76.4652 17.0467 76.241 17.0915C76.1514 17.0915 75.9272 17.1812 75.4789 17.2709ZM81.5759 33.2754L81.8 33.3202C81.9793 33.3651 82.069 33.4099 82.1587 33.4099C82.7415 33.5444 83.1449 33.8134 83.3691 34.2168C83.5932 34.6652 83.7277 35.3824 83.8174 36.4135C83.8622 37.4895 83.9519 38.3413 84.0864 38.9689C84.176 39.5517 84.2209 40.4931 84.2209 41.7932C84.2209 43.0933 84.1312 43.9003 83.9967 44.2141C83.8174 44.6624 83.2346 45.1107 82.338 45.4693C81.7552 45.6935 81.2172 45.5142 80.7241 44.8865C80.231 44.2589 80.0068 43.5416 80.0965 42.645C80.1861 41.8381 80.0965 40.3586 79.8723 38.2516C79.8275 37.8033 79.6482 37.5343 79.3343 37.4447C79.0205 37.355 78.1239 37.355 76.5997 37.3998C74.9858 37.4895 73.9995 37.5343 73.596 37.624C73.1029 37.7136 72.4753 37.8033 71.6683 37.893C70.682 37.9826 70.0544 38.0723 69.6958 38.1171C67.9922 38.4309 67.0956 37.8033 66.9163 36.2791C66.8266 35.4273 67.0956 34.8893 67.768 34.6203C68.3957 34.3962 70.2786 34.172 73.4167 33.903C74.5823 33.8134 75.4341 33.7685 75.972 33.6789C76.6893 33.5892 77.7204 33.5444 79.0654 33.4547C80.4103 33.4099 81.1276 33.3651 81.2172 33.2754C81.2621 33.2306 81.3965 33.2306 81.5759 33.2754ZM113.724 10.6808C114.262 10.9049 114.621 11.2187 114.755 11.6222C114.89 12.0257 114.98 13.1465 115.069 14.9397C115.114 16.5087 115.159 17.4054 115.249 17.6743C115.338 17.9433 115.562 18.033 116.011 18.033C116.907 18.033 117.759 18.1675 118.476 18.3916C119.194 18.6606 119.687 18.9744 119.911 19.3331C120.27 20.0952 120.27 20.7228 119.911 21.2608C119.552 21.7988 118.925 22.0229 118.118 21.9333C116.907 21.7988 116.145 21.7988 115.876 21.9333C115.742 21.9781 115.652 22.1126 115.652 22.3367C115.652 22.6057 115.652 23.2333 115.742 24.3093C115.786 25.7887 115.786 26.7301 115.697 27.1784C115.607 27.6267 115.338 28.0751 114.89 28.5234C114.531 28.9717 114.397 29.2406 114.531 29.2406C115.562 29.5545 116.235 30.1373 116.549 31.0339C116.862 31.9305 117.042 33.6341 117.087 36.1894C117.087 37.1757 117.131 38.2068 117.221 39.193C117.311 40.1345 117.356 40.7621 117.266 41.0759C117.176 41.3897 116.952 41.7036 116.549 41.9725C115.966 42.4209 115.338 42.5553 114.621 42.3312C113.904 42.107 113.5 41.6587 113.321 40.9863C113.321 40.9863 113.276 40.8518 113.186 40.5828C113.097 40.3138 113.052 40.1345 113.052 39.9552C112.917 39.5069 112.873 38.4309 112.917 36.6825C112.917 35.248 112.873 34.3962 112.783 34.1272C112.693 33.8582 112.424 33.6789 111.976 33.5892C111.259 33.4996 110.272 33.5892 109.107 33.7685C108.658 33.8582 108.031 33.9479 107.224 34.0375C106.372 34.1272 105.52 34.2168 104.624 34.3513C104.131 34.441 103.279 34.6203 102.068 34.7996C101.799 34.8445 101.486 34.8893 101.037 34.979C100.589 35.0686 100.275 35.1135 100.185 35.1135C99.2888 35.2928 98.5715 35.0238 98.1232 34.3513C97.7646 33.903 97.7198 33.3202 97.9439 32.6926C98.1232 32.065 98.4819 31.6615 99.0198 31.527C99.244 31.527 99.6475 31.4373 100.275 31.3477C101.261 31.1684 102.382 30.989 103.682 30.8097C104.758 30.6752 105.7 30.5407 106.551 30.3614C108.12 30.0924 109.734 29.8234 111.438 29.6441C112.559 29.5545 113.186 29.42 113.321 29.3303C113.455 29.2855 113.635 29.2406 113.859 29.2406C114.262 29.2406 114.128 29.0613 113.455 28.7027C112.828 28.4337 112.424 27.8957 112.155 27.1336C111.886 26.4163 111.662 25.2059 111.572 23.5023C111.438 21.7988 111.348 19.0641 111.303 15.2983C111.259 13.3258 111.303 12.1153 111.393 11.667C111.483 11.2187 111.707 10.9049 112.155 10.6808C112.559 10.4566 113.097 10.4566 113.724 10.6808ZM103.189 11.3981C103.727 11.7567 103.996 12.3843 103.951 13.2361C103.906 14.0431 103.727 14.6259 103.368 14.8948C103.01 15.1638 102.203 15.388 100.992 15.5673C100.23 15.7018 99.3785 15.8811 98.437 16.1501C97.4508 16.4191 96.9576 16.6432 96.9576 16.7329C96.7335 17.4502 96.6438 18.3468 96.6438 19.4227C96.6438 20.0952 96.599 20.9022 96.5093 21.8436C96.4197 22.8747 96.4645 23.4575 96.6438 23.5472C96.8231 23.6368 97.5853 23.5472 98.9302 23.2333C100.589 22.8747 101.934 22.6057 102.965 22.4264C103.951 22.2471 104.803 22.2022 105.431 22.2022C106.058 22.2471 106.462 22.3816 106.731 22.6057C106.955 22.8747 107.045 23.2333 107.045 23.6817C107.045 24.3989 106.82 24.9369 106.372 25.3404C105.924 25.7887 105.386 25.968 104.668 25.968C104.131 25.968 103.01 26.237 101.351 26.7301L100.589 26.9991C100.275 27.0888 100.096 27.1336 100.096 27.1336C99.6475 27.2681 98.975 27.4026 97.9887 27.5371C97.0025 27.6716 96.2403 27.7164 95.7472 27.7164C94.6264 27.7164 93.8195 27.4923 93.2815 26.9991C92.7436 26.506 92.5194 25.7439 92.5642 24.7576C92.5642 23.0989 92.6539 21.4401 92.7884 19.8262V19.6021C92.878 18.1675 92.878 17.2709 92.878 17.0019C92.8332 16.7329 92.6539 16.5536 92.3401 16.3743C92.2952 16.3743 92.2504 16.3294 92.2504 16.3294C91.578 16.0604 91.1745 15.657 90.9952 15.119C90.8158 14.6259 90.8607 14.1776 91.1745 13.7293C91.4883 13.3258 92.0263 13.0568 92.7436 12.9671C94.6264 12.6981 96.061 12.474 97.137 12.205C97.7646 12.0257 98.1681 11.936 98.437 11.936C99.244 11.936 100.096 11.7567 100.992 11.3981C101.889 11.0394 102.606 11.0394 103.189 11.3981ZM142.844 10.5014C143.337 10.6808 143.696 10.9049 143.965 11.1739C144.234 11.5325 144.413 13.1913 144.548 16.1501C144.548 16.2846 144.593 16.4191 144.593 16.5984C144.593 17.6743 144.682 18.2571 144.817 18.4365C144.951 18.6158 145.355 18.7503 146.027 18.7503H146.386C147.82 18.8399 148.807 19.1538 149.255 19.6917C149.838 20.409 149.927 21.1263 149.479 21.7988C149.031 22.4712 148.314 22.6954 147.417 22.4264C146.341 22.1574 145.669 22.1574 145.355 22.3816C144.996 22.6505 144.906 23.2333 145.041 24.2196C145.131 25.4749 145.131 26.3715 145.041 26.9543C144.951 27.5819 144.682 28.1199 144.234 28.5682C143.696 29.1062 143.203 29.2855 142.755 29.151C142.261 29.0165 141.948 28.5682 141.858 27.8061C141.813 27.5371 141.723 27.2233 141.544 26.8646C141.275 26.3267 141.051 24.9817 140.872 22.785C140.692 20.6332 140.647 19.0641 140.737 18.1227C140.782 17.6295 140.782 17.0915 140.692 16.5087C140.603 15.926 140.603 15.3432 140.647 14.8052C140.692 14.312 140.692 13.7741 140.603 13.2361C140.378 11.936 140.737 11.0394 141.679 10.5463C141.948 10.367 142.351 10.367 142.844 10.5014ZM133.968 11.6222C134.506 11.7119 135.044 11.936 135.582 12.2498C136.389 12.7878 136.658 14.2224 136.478 16.5984C136.389 17.5847 136.433 18.3468 136.568 18.8848C136.792 19.871 136.792 21.3056 136.523 23.1437C136.254 25.0266 135.851 26.2818 135.402 26.9991C135.223 27.2681 134.999 27.4923 134.73 27.6267C134.461 27.7612 134.013 27.8957 133.295 28.0751C132.04 28.4337 131.099 28.7027 130.471 28.882C129.216 29.2855 127.826 29.2855 126.257 28.882C124.688 28.5234 123.746 27.9406 123.388 27.1336C123.029 26.3267 122.76 24.2196 122.491 20.8125C122.222 17.4054 122.177 15.2535 122.401 14.3569C122.536 13.6844 122.85 13.2361 123.298 12.9671C123.746 12.743 124.239 12.7878 124.777 13.0568C125.226 13.3258 125.495 13.6396 125.629 14.0431C125.764 14.4465 125.898 15.2983 125.988 16.5536C125.988 17.4502 126.078 17.9433 126.167 18.0778C126.257 18.2571 126.481 18.2571 126.84 18.1675C127.109 18.0778 127.826 17.9882 128.947 17.8088C129.081 17.8088 129.305 17.764 129.619 17.7192C130.964 17.5399 131.771 17.3605 132.04 17.226C132.264 17.1364 132.399 16.8226 132.443 16.2846C132.443 16.1949 132.443 16.1053 132.488 16.0604C132.488 15.5225 132.488 15.2087 132.488 15.0293C132.443 14.85 132.354 14.581 132.174 14.2224C131.637 13.1016 131.816 12.2498 132.712 11.7119C132.981 11.5325 133.43 11.5325 133.968 11.6222ZM131.368 20.6332C130.426 20.7228 129.485 20.8573 128.543 21.1263C128.14 21.216 127.736 21.3056 127.288 21.3505C126.795 21.4401 126.526 21.5298 126.436 21.6643C126.347 21.8436 126.391 22.2919 126.481 23.054C126.571 24.0851 126.705 24.7128 126.974 24.8921C127.243 25.0714 127.916 25.1162 128.992 25.0266C130.695 24.8921 131.771 24.4886 132.309 23.7713C132.488 23.5472 132.623 23.054 132.802 22.2471C132.981 21.485 133.026 21.0366 132.937 20.8573C132.802 20.678 132.264 20.5883 131.368 20.6332ZM143.92 30.1821C145.624 30.5407 146.834 31.0339 147.641 31.7063C148.314 32.334 148.717 33.0961 148.896 34.0824C149.076 35.0686 148.941 36.0101 148.493 36.9067C148.045 37.893 147.013 38.9241 145.444 39.9103C143.875 40.9414 142.172 41.7484 140.289 42.2864C138.406 42.8243 136.882 43.0037 135.671 42.7795C134.057 42.5105 132.802 41.7036 131.816 40.3138C130.83 38.9241 130.561 37.5343 131.009 36.0997C131.099 35.9204 131.188 35.5169 131.278 34.979C131.457 33.9479 131.906 33.1857 132.623 32.6478C133.295 32.1098 134.819 31.4373 137.151 30.5856C137.285 30.5856 137.42 30.5407 137.599 30.4511C137.733 30.4062 137.868 30.3614 138.002 30.3166C138.092 30.2718 138.182 30.2269 138.227 30.2269C138.361 30.1821 138.72 30.0924 139.258 30.0028C140.647 29.7786 142.217 29.8234 143.92 30.1821ZM141.23 33.2754C139.796 33.2754 138.72 33.3651 138.047 33.5444C137.151 33.8134 136.523 34.0375 136.164 34.2617C135.806 34.4858 135.447 34.8445 135.133 35.3824C134.282 36.6377 134.147 37.5791 134.73 38.1619C135.268 38.7896 136.389 38.9241 138.047 38.5654C139.751 38.2068 141.051 37.893 141.858 37.5791C142.665 37.3102 143.427 36.8619 144.055 36.3239C144.772 35.7411 145.131 35.248 145.131 34.8445C145.131 34.4858 144.727 34.0824 144.01 33.6341C143.561 33.4099 142.665 33.2754 141.23 33.2754Z" fill="#2D2D2D"/>
<rect x="49.6396" y="6.72852" width="1.56736" height="26.1226" rx="0.783678" fill="#2D2D2D"/>
<rect x="4.8916" y="14.2021" width="1.56736" height="18.4829" rx="0.783678" fill="#2D2D2D"/>
<path d="M5.0247 12.2529H29.0772L32.8689 18.6683C32.9718 18.8424 32.8463 19.0624 32.644 19.0624H1.45784C1.25556 19.0624 1.13003 18.8424 1.23295 18.6683L5.0247 12.2529Z" fill="#3CAFAF" stroke="#2D2D2D" stroke-width="1.56736"/>
<path d="M24.8447 2.19531H51.0837L55.2146 8.60202C55.3267 8.77585 55.2019 9.0048 54.9951 9.0048H20.9334C20.7265 9.0048 20.6017 8.77585 20.7138 8.60202L24.8447 2.19531Z" fill="#3CAFAF" stroke="#2D2D2D" stroke-width="1.56736"/>
<path d="M11.8887 26.6911C11.8887 24.8877 13.3506 23.4258 15.154 23.4258C16.9574 23.4258 18.4193 24.8877 18.4193 26.6911V31.8068C18.4193 32.2276 18.0782 32.5687 17.6574 32.5687H12.6506C12.2298 32.5687 11.8887 32.2276 11.8887 31.8068V26.6911Z" fill="#2D2D2D"/>
<path d="M21.0303 24.0822C21.0303 23.0002 21.9074 22.123 22.9895 22.123C24.0715 22.123 24.9487 23.0002 24.9487 24.0822V31.7013C24.9487 32.1822 24.5588 32.5721 24.0779 32.5721H21.901C21.4201 32.5721 21.0303 32.1822 21.0303 31.7013V24.0822Z" fill="#2D2D2D"/>
<path d="M31.1572 29.7665C31.1572 26.0057 34.2059 22.957 37.9667 22.957C41.7275 22.957 44.7762 26.0057 44.7762 29.7665V31.8742C44.7762 32.3219 44.4133 32.6849 43.9655 32.6849H31.9679C31.5202 32.6849 31.1572 32.3219 31.1572 31.8742V29.7665Z" fill="#2D2D2D"/>
<path d="M38.0119 37.792C38.0119 42.1201 33.6261 45.6288 28.2159 45.6288C22.8057 45.6288 18.4199 42.1201 18.4199 37.792" stroke="#2D2D2D" stroke-width="2.31248" stroke-linecap="round"/>
</svg>
