<svg width="87" height="30" viewBox="0 0 87 30" fill="none" xmlns="http://www.w3.org/2000/svg">
<path d="M51.9623 5.58344C52.4082 5.78409 52.6981 6.02932 52.7872 6.34144C52.8764 6.72045 52.921 7.67911 52.921 9.19513C52.8987 10.7111 52.8318 11.6252 52.7203 11.9373C52.4974 12.517 51.9623 12.8737 51.0929 12.9852C50.7584 13.0298 50.5578 13.0966 50.5132 13.1858C50.4463 13.2973 50.4017 13.6094 50.4017 14.1222C50.3794 14.6127 50.4017 14.9025 50.4909 14.9694C50.5578 15.0363 50.8699 15.0585 51.4273 15.0363C51.8732 15.0363 52.5643 14.9917 53.4784 14.9248C54.281 14.8579 54.7491 14.8356 54.9275 14.8802C55.1281 14.9694 55.3065 15.1031 55.4848 15.3261C55.6632 15.549 55.7524 15.772 55.7524 15.9503C55.7524 16.2179 55.4626 16.4631 54.9052 16.6637C54.3478 16.8867 53.8128 16.9536 53.3223 16.8644C52.6981 16.7752 51.3381 16.8867 49.1978 17.1542C48.9303 17.1988 48.4621 17.1988 47.771 17.1988C47.0576 17.1988 46.3665 17.2211 45.6976 17.2657C44.7613 17.3326 44.1816 17.3326 43.9364 17.2434C43.6688 17.1765 43.5574 16.9536 43.5574 16.5969C43.5574 16.2624 43.6688 16.0172 43.8918 15.8834C44.1147 15.7497 44.6275 15.6382 45.3855 15.5267C45.5416 15.5044 45.8314 15.4598 46.2327 15.4153C46.4333 15.3707 46.79 15.3484 47.2805 15.3038C47.771 15.2592 48.0608 15.1923 48.1277 15.1031C48.1946 15.014 48.2392 14.635 48.2392 14.0107V13.2304H47.9048C47.8825 13.2304 47.4812 13.2527 46.7009 13.275C46.032 13.2973 45.5639 13.2304 45.2517 13.0521C44.9396 12.896 44.7167 12.6062 44.5829 12.1826C44.4491 11.7813 44.3823 10.8226 44.36 9.35118C44.3154 7.87976 44.36 7.03257 44.4937 6.83192C44.7167 6.43062 45.0288 6.34144 45.4524 6.54209C45.6753 6.67586 45.8537 6.85422 45.9429 7.12175C46.032 7.38928 46.0989 7.79058 46.1212 8.30335C46.1212 8.54859 46.1435 8.70465 46.1881 8.74924C46.2327 8.81612 46.3665 8.83841 46.5448 8.79383C46.7455 8.74924 46.9907 8.72694 47.3028 8.68235C47.7933 8.63776 48.3061 8.54859 48.8411 8.43712C49.0195 8.41482 49.3539 8.37023 49.8667 8.30335C50.3126 8.25876 50.5578 8.19188 50.647 8.14729C50.7139 8.1027 50.7584 7.94664 50.7584 7.67911C50.7584 7.41157 50.6916 7.18863 50.6024 6.98798C50.4686 6.74274 50.4463 6.47521 50.4909 6.16309C50.5355 5.87326 50.6693 5.67261 50.8922 5.53885C51.1374 5.38279 51.4942 5.40508 51.9623 5.58344ZM49.1087 10.1538C48.8857 10.1984 48.6851 10.243 48.529 10.2653C48.0385 10.3767 47.7264 10.4436 47.6372 10.4882C47.5481 10.5328 47.3028 10.5551 46.9461 10.5551C46.5894 10.5997 46.3442 10.6666 46.2327 10.8003C46.1212 10.9341 46.1435 11.1124 46.3219 11.3131C46.3665 11.4023 46.7677 11.4469 47.5703 11.4692C48.3507 11.4914 48.9303 11.4692 49.3316 11.4023C50.2011 11.2908 50.6916 11.2016 50.7807 11.1124C50.8253 11.0679 50.8699 10.9118 50.9145 10.622C50.9591 10.3321 50.9814 10.1761 50.9368 10.1315C50.8922 10.0869 50.6693 10.0646 50.268 10.0423C49.8667 10.0423 49.5991 10.0423 49.4877 10.0646C49.4431 10.0646 49.3316 10.1092 49.1087 10.1538ZM52.1407 18.1129L52.2522 18.1352C52.3413 18.1575 52.3859 18.1798 52.4305 18.1798C52.7203 18.2466 52.921 18.3804 53.0325 18.5811C53.1439 18.804 53.2108 19.1607 53.2554 19.6735C53.2777 20.2085 53.3223 20.6321 53.3892 20.9443C53.4338 21.2341 53.4561 21.7023 53.4561 22.3488C53.4561 22.9953 53.4115 23.3966 53.3446 23.5527C53.2554 23.7756 52.9656 23.9986 52.5197 24.1769C52.2299 24.2884 51.9623 24.1992 51.7171 23.8871C51.4719 23.575 51.3604 23.2183 51.405 22.7724C51.4496 22.3711 51.405 21.6354 51.2935 20.5876C51.2712 20.3646 51.182 20.2308 51.026 20.1863C50.8699 20.1417 50.424 20.1417 49.666 20.164C48.8634 20.2085 48.3729 20.2308 48.1723 20.2754C47.9271 20.32 47.6149 20.3646 47.2136 20.4092C46.7232 20.4538 46.411 20.4984 46.2327 20.5207C45.3855 20.6767 44.9396 20.3646 44.8504 19.6066C44.8058 19.183 44.9396 18.9155 45.274 18.7817C45.5861 18.6702 46.5225 18.5588 48.0831 18.425C48.6628 18.3804 49.0864 18.3581 49.3539 18.3135C49.7106 18.2689 50.2234 18.2466 50.8922 18.2021C51.561 18.1798 51.9177 18.1575 51.9623 18.1129C51.9846 18.0906 52.0515 18.0906 52.1407 18.1129ZM68.1282 6.87651C68.3957 6.98798 68.5741 7.14404 68.6409 7.34469C68.7078 7.54534 68.7524 8.1027 68.797 8.99448C68.8193 9.77478 68.8416 10.2207 68.8862 10.3544C68.9308 10.4882 69.0422 10.5328 69.2652 10.5328C69.7111 10.5328 70.1347 10.5997 70.4914 10.7111C70.8481 10.8449 71.0933 11.001 71.2048 11.1793C71.3832 11.5583 71.3832 11.8705 71.2048 12.138C71.0264 12.4055 70.7143 12.517 70.313 12.4724C69.7111 12.4055 69.3321 12.4055 69.1983 12.4724C69.1314 12.4947 69.0868 12.5616 69.0868 12.673C69.0868 12.8068 69.0868 13.1189 69.1314 13.654C69.1537 14.3897 69.1537 14.8579 69.1091 15.0808C69.0645 15.3038 68.9308 15.5267 68.7078 15.7497C68.5295 15.9726 68.4626 16.1064 68.5295 16.1064C69.0422 16.2624 69.3767 16.5523 69.5327 16.9982C69.6888 17.444 69.778 18.2912 69.8003 19.562C69.8003 20.0525 69.8225 20.5653 69.8671 21.0557C69.9117 21.5239 69.934 21.836 69.8894 21.9921C69.8448 22.1482 69.7334 22.3042 69.5327 22.438C69.2429 22.6609 68.9308 22.7278 68.5741 22.6163C68.2174 22.5049 68.0167 22.2819 67.9275 21.9475C67.9275 21.9475 67.9052 21.8806 67.8606 21.7469C67.8161 21.6131 67.7938 21.5239 67.7938 21.4347C67.7269 21.2118 67.7046 20.6767 67.7269 19.8072C67.7269 19.0938 67.7046 18.6702 67.66 18.5365C67.6154 18.4027 67.4816 18.3135 67.2587 18.2689C66.902 18.2243 66.4115 18.2689 65.8319 18.3581C65.6089 18.4027 65.2968 18.4473 64.8955 18.4919C64.4719 18.5365 64.0483 18.5811 63.6024 18.6479C63.3572 18.6925 62.9336 18.7817 62.3316 18.8709C62.1979 18.8932 62.0418 18.9155 61.8189 18.9601C61.5959 19.0046 61.4399 19.0269 61.3953 19.0269C60.9494 19.1161 60.5927 18.9824 60.3697 18.6479C60.1914 18.425 60.1691 18.1352 60.2806 17.823C60.3697 17.5109 60.5481 17.3103 60.8156 17.2434C60.9271 17.2434 61.1277 17.1988 61.4399 17.1542C61.9303 17.065 62.4877 16.9759 63.1342 16.8867C63.6693 16.8198 64.1375 16.7529 64.5611 16.6637C65.3414 16.53 66.144 16.3962 66.9912 16.307C67.5485 16.2624 67.8606 16.1956 67.9275 16.151C67.9944 16.1287 68.0836 16.1064 68.1951 16.1064C68.3957 16.1064 68.3288 16.0172 67.9944 15.8388C67.6823 15.7051 67.4816 15.4375 67.3479 15.0585C67.2141 14.7018 67.1026 14.0999 67.058 13.2527C66.9912 12.4055 66.9466 11.0456 66.9243 9.17283C66.902 8.19188 66.9243 7.58993 66.9689 7.36699C67.0135 7.14404 67.1249 6.98798 67.3479 6.87651C67.5485 6.76504 67.8161 6.76504 68.1282 6.87651ZM62.889 7.23322C63.1565 7.41157 63.2903 7.7237 63.268 8.14729C63.2457 8.54859 63.1565 8.83841 62.9782 8.97218C62.7998 9.10595 62.3985 9.21742 61.7966 9.3066C61.4176 9.37348 60.994 9.46266 60.5258 9.59642C60.0353 9.73019 59.7901 9.84166 59.7901 9.88625C59.6786 10.243 59.634 10.6888 59.634 11.2239C59.634 11.5583 59.6117 11.9596 59.5671 12.4278C59.5225 12.9406 59.5448 13.2304 59.634 13.275C59.7232 13.3196 60.1022 13.275 60.771 13.1189C61.5959 12.9406 62.2648 12.8068 62.7775 12.7176C63.268 12.6285 63.6916 12.6062 64.0037 12.6062C64.3158 12.6285 64.5165 12.6953 64.6503 12.8068C64.7617 12.9406 64.8063 13.1189 64.8063 13.3419C64.8063 13.6986 64.6948 13.9661 64.4719 14.1668C64.249 14.3897 63.9814 14.4789 63.6247 14.4789C63.3572 14.4789 62.7998 14.6127 61.9749 14.8579L61.5959 14.9917C61.4399 15.0363 61.3507 15.0585 61.3507 15.0585C61.1277 15.1254 60.7933 15.1923 60.3028 15.2592C59.8124 15.3261 59.4334 15.3484 59.1881 15.3484C58.6308 15.3484 58.2295 15.2369 57.9619 14.9917C57.6944 14.7464 57.5829 14.3674 57.6052 13.8769C57.6052 13.0521 57.6498 12.2272 57.7167 11.4246V11.3131C57.7613 10.5997 57.7613 10.1538 57.7613 10.02C57.739 9.88625 57.6498 9.79707 57.4938 9.7079C57.4715 9.7079 57.4492 9.6856 57.4492 9.6856C57.1148 9.55183 56.9141 9.35118 56.8249 9.08365C56.7357 8.83841 56.758 8.61547 56.9141 8.39253C57.0702 8.19188 57.3377 8.05811 57.6944 8.01352C58.6308 7.87976 59.3442 7.76828 59.8793 7.63452C60.1914 7.54534 60.392 7.50075 60.5258 7.50075C60.9271 7.50075 61.3507 7.41157 61.7966 7.23322C62.2425 7.05486 62.5992 7.05486 62.889 7.23322ZM82.6096 6.78733C82.8548 6.87651 83.0332 6.98798 83.1669 7.12175C83.3007 7.3001 83.3899 8.12499 83.4567 9.59642C83.4567 9.66331 83.479 9.73019 83.479 9.81937C83.479 10.3544 83.5236 10.6443 83.5905 10.7334C83.6574 10.8226 83.858 10.8895 84.1925 10.8895H84.3708C85.0842 10.9341 85.5747 11.0901 85.7977 11.3577C86.0875 11.7144 86.1321 12.0711 85.9091 12.4055C85.6862 12.7399 85.3295 12.8514 84.8836 12.7176C84.3485 12.5839 84.0141 12.5839 83.858 12.6953C83.6797 12.8291 83.6351 13.1189 83.702 13.6094C83.7466 14.2337 83.7466 14.6795 83.702 14.9694C83.6574 15.2815 83.5236 15.549 83.3007 15.772C83.0332 16.0395 82.7879 16.1287 82.565 16.0618C82.3197 15.9949 82.1637 15.772 82.1191 15.393C82.0968 15.2592 82.0522 15.1031 81.963 14.9248C81.8293 14.6572 81.7178 13.9884 81.6286 12.896C81.5394 11.8259 81.5171 11.0456 81.5617 10.5774C81.584 10.3321 81.584 10.0646 81.5394 9.77478C81.4948 9.48495 81.4948 9.19513 81.5171 8.92759C81.5394 8.68235 81.5394 8.41482 81.4948 8.14729C81.3834 7.50075 81.5617 7.05486 82.0299 6.80963C82.1637 6.72045 82.3643 6.72045 82.6096 6.78733ZM78.1953 7.34469C78.4628 7.38928 78.7303 7.50075 78.9979 7.65681C79.3992 7.92434 79.5329 8.63776 79.4438 9.81937C79.3992 10.3098 79.4215 10.6888 79.4884 10.9564C79.5998 11.4469 79.5998 12.1603 79.4661 13.0743C79.3323 14.0107 79.1316 14.635 78.9087 14.9917C78.8195 15.1254 78.708 15.2369 78.5743 15.3038C78.4405 15.3707 78.2176 15.4375 77.8609 15.5267C77.2366 15.7051 76.7684 15.8388 76.4563 15.928C75.8321 16.1287 75.1409 16.1287 74.3606 15.928C73.5803 15.7497 73.1122 15.4598 72.9338 15.0585C72.7554 14.6572 72.6217 13.6094 72.4879 11.915C72.3542 10.2207 72.3319 9.15054 72.4433 8.70465C72.5102 8.37023 72.6663 8.14729 72.8892 8.01352C73.1122 7.90205 73.3574 7.92434 73.6249 8.05811C73.8479 8.19188 73.9816 8.34794 74.0485 8.54859C74.1154 8.74924 74.1823 9.17283 74.2269 9.79707C74.2269 10.243 74.2715 10.4882 74.3161 10.5551C74.3606 10.6443 74.4721 10.6443 74.6505 10.5997C74.7842 10.5551 75.1409 10.5105 75.6983 10.4213C75.7652 10.4213 75.8767 10.399 76.0327 10.3767C76.7016 10.2875 77.1029 10.1984 77.2366 10.1315C77.3481 10.0869 77.415 9.93084 77.4373 9.66331C77.4373 9.61872 77.4373 9.57413 77.4596 9.55183C77.4596 9.2843 77.4596 9.12824 77.4596 9.03906C77.4373 8.94989 77.3927 8.81612 77.3035 8.63776C77.036 8.08041 77.1251 7.65681 77.571 7.38928C77.7048 7.3001 77.9277 7.3001 78.1953 7.34469ZM76.9022 11.8259C76.434 11.8705 75.9658 11.9373 75.4977 12.0711C75.297 12.1157 75.0964 12.1603 74.8734 12.1826C74.6282 12.2272 74.4944 12.2717 74.4498 12.3386C74.4052 12.4278 74.4275 12.6508 74.4721 13.0298C74.5167 13.5425 74.5836 13.8546 74.7174 13.9438C74.8511 14.033 75.1855 14.0553 75.7206 14.0107C76.5678 13.9438 77.1029 13.7432 77.3704 13.3865C77.4596 13.275 77.5264 13.0298 77.6156 12.6285C77.7048 12.2495 77.7271 12.0265 77.6825 11.9373C77.6156 11.8482 77.3481 11.8036 76.9022 11.8259ZM83.1446 16.5746C83.9918 16.7529 84.5938 16.9982 84.9951 17.3326C85.3295 17.6447 85.5301 18.0237 85.6193 18.5142C85.7085 19.0046 85.6416 19.4728 85.4187 19.9187C85.1957 20.4092 84.6829 20.922 83.9026 21.4124C83.1223 21.9252 82.2751 22.3265 81.3388 22.594C80.4024 22.8616 79.6444 22.9508 79.0425 22.8393C78.2399 22.7055 77.6156 22.3042 77.1251 21.6131C76.6347 20.922 76.5009 20.2308 76.7238 19.5174C76.7684 19.4282 76.813 19.2276 76.8576 18.9601C76.9468 18.4473 77.1697 18.0683 77.5264 17.8008C77.8609 17.5332 78.6189 17.1988 79.7782 16.7752C79.8451 16.7752 79.9119 16.7529 80.0011 16.7083C80.068 16.686 80.1349 16.6637 80.2018 16.6414C80.2464 16.6192 80.2909 16.5969 80.3132 16.5969C80.3801 16.5746 80.5585 16.53 80.826 16.4854C81.5171 16.3739 82.2974 16.3962 83.1446 16.5746ZM81.807 18.1129C81.0935 18.1129 80.5585 18.1575 80.2241 18.2466C79.7782 18.3804 79.4661 18.4919 79.2877 18.6034C79.1093 18.7148 78.931 18.8932 78.7749 19.1607C78.3513 19.785 78.2845 20.2531 78.5743 20.543C78.8418 20.8551 79.3992 20.922 80.2241 20.7436C81.0713 20.5653 81.7178 20.4092 82.1191 20.2531C82.5204 20.1194 82.8994 19.8964 83.2115 19.6289C83.5682 19.3391 83.7466 19.0938 83.7466 18.8932C83.7466 18.7148 83.5459 18.5142 83.1892 18.2912C82.9663 18.1798 82.5204 18.1129 81.807 18.1129Z" fill="#2D2D2D"/>
<rect x="32.5503" y="3.93945" width="1.01667" height="16.9446" rx="0.508337" fill="#2D2D2D"/>
<rect x="3.52441" y="8.78906" width="1.01667" height="11.989" rx="0.508337" fill="#2D2D2D"/>
<path d="M3.61064 7.52539H19.2124L21.6719 11.6867C21.7387 11.7997 21.6573 11.9424 21.5261 11.9424H1.29698C1.16577 11.9424 1.08435 11.7997 1.15111 11.6867L3.61064 7.52539Z" fill="#3CAFAF" stroke="#2D2D2D" stroke-width="1.01667"/>
<path d="M16.4681 1H33.4882L36.1677 5.15574C36.2404 5.2685 36.1595 5.41701 36.0253 5.41701H13.931C13.7968 5.41701 13.7159 5.2685 13.7886 5.15574L16.4681 1Z" fill="#3CAFAF" stroke="#2D2D2D" stroke-width="1.01667"/>
<path d="M8.0625 16.8896C8.0625 15.7198 9.01079 14.7715 10.1806 14.7715C11.3503 14.7715 12.2986 15.7198 12.2986 16.8896V20.2079C12.2986 20.4808 12.0774 20.7021 11.8044 20.7021H8.55672C8.28377 20.7021 8.0625 20.4808 8.0625 20.2079V16.8896Z" fill="#2D2D2D"/>
<path d="M13.9932 15.1947C13.9932 14.4928 14.5621 13.9238 15.264 13.9238C15.9659 13.9238 16.5348 14.4928 16.5348 15.1947V20.1368C16.5348 20.4488 16.282 20.7016 15.97 20.7016H14.558C14.246 20.7016 13.9932 20.4488 13.9932 20.1368V15.1947Z" fill="#2D2D2D"/>
<path d="M20.5615 18.8838C20.5615 16.4444 22.5391 14.4668 24.9785 14.4668C27.418 14.4668 29.3955 16.4444 29.3955 18.8838V20.251C29.3955 20.5414 29.1601 20.7768 28.8697 20.7768H21.0874C20.7969 20.7768 20.5615 20.5414 20.5615 20.251V18.8838Z" fill="#2D2D2D"/>
<path d="M25.0072 24.0898C25.0072 26.8973 22.1624 29.1732 18.653 29.1732C15.1437 29.1732 12.2988 26.8973 12.2988 24.0898" stroke="#2D2D2D" stroke-width="1.5" stroke-linecap="round"/>
</svg>
